/* XPM */
static char *result[] = {
/* columns rows colors chars-per-pixel */
"64 64 8 1 ",
"  c black",
". c #808080",
"X c black",
"o c white",
"O c #C0C0C0",
"+ c #008000",
"@ c yellow",
"# c #808000",
/* pixels */
"OOOOOOOOOOOOOOOOOOOOOOOOOOOOOOOOOOOOOOOOOOOOOOOOOOOOOOOOOOOOOO..",
"oooooooooooooooooooooooooooooooooooooooooooooooooooooooooooooo  ",
"ooOOOOOOOOOOOOOOOOOOOOOOOOOOOOOOOOOOOOOOOOOOOOOOOOOOOOOOOOOOO.  ",
"oo............................................................  ",
"oo......OOOO............OOOO............OOOO............OOOO..  ",
"oo......OOOO............OOOO............OOOO............OOOO..  ",
"oo....OOOOOO..........OOOOOO..........OOOOOO..........OOOOOO..  ",
"oo....OOOOOO..........OOOOOO..........OOOOOO..........OOOOOO..  ",
"oo..OOOOOO..........OOOOOO..........OOOOOO..........OOOOOO....  ",
"oo..OOOOOO. ........OOOOOO. ........OOOOOO .........OOOOOO ...  ",
"oo..OOOO............OOOO............OOOO............OOOO......  ",
"oo..OOOO. ..........OOOO. ..........OOOO.+..........OOOO .....  ",
"oo............................................................  ",
"oo...   .............   ............    ............   .......  ",
"oo............................................................  ",
"Oo............................................................  ",
"oo............................................................  ",
"oo............................................................  ",
"oo............................................................  ",
"oo..OO........................................................  ",
"oo.OOOOOOOOOOOOOOOOOOOOOOOOOOOOOOOOOOOOOOOOOOOOOOOOOOOOOOOO...  ",
"oo.OooOOOOOOOOOOOOOOOOOOOOOOOOOOOOOOOOOOOOOOOOOOOOOOOOOOOOO...  ",
"oo.OooO.....................................................+.  ",
"oo.Ooo.++.....+++.....+++.....+++.....+++.....+++.....+++++++.  ",
"oo.Ooo.++.OOO..++.OOO..++.OOO..++.OOO..++.OOO..++.OOO..++++++.  ",
"oo.Ooo.++.OoO..++.OoO..++.OoO..++.OoO..++.OoO..++.OoO..++++++.  ",
"oo.Ooo.++.OOO..++.OOO..++.OOO..++.OOO..++.OOO..++.OOO..++++++.  ",
"oo.Ooo.++.OO...++.OO...++.OO...++.OO...++.OO...++.OO...++++++.  ",
"oo.Ooo.++.OO...++.OO...++.OO...++.OO...++.OO...++.OO...++++++.  ",
"oo.Ooo.++.OO...++.OO...++.OO...++.OO...++.OO...++.OO...++++++.  ",
"oo.Ooo.++.OO...++.OO...++.OO...++.OO...++.OO...++.OO...++++++.  ",
"oo.Ooo.++..... ++..... ++..... ++..... ++..... ++..... ++++++.  ",
"oo.Ooo.+++...  +++...  +++...  +++...  +++...  +++...  ++++++.  ",
"oo.Ooo.+++++..++++++..++++++..++++++..++++++..++++++..+++++++.  ",
"oo.Ooo.++++....++++....++++....++++....++++....++++....++++++.  ",
"oo..OO......OO......OO.........++++.OO......OO......OO.....++.  ",
"oo...O........................+++++.........................+.  ",
"oo..........................#++++++#........................#.  ",
"oo....@@..@@..@@..@@..@@..@@#++++++#@@..@@..@@..@@..@@..@@.##.  ",
"oo....@@##@@##@@##@@##@@##@@#+ .. +#@@##@@##@@##@@##@@##@@###.  ",
"oo....@@##@@##@@##@@##@@##@@# .... #@@##@@##@@##@@##@@##@@###.  ",
"oo....@@##@@##@@##@@##@@##@@#......#@@##@@##@@##@@##@@##@@## .  ",
"Oo...#######################.........######################  .  ",
"Oo....... ............... ..............++.............. .....  ",
"oo............................................................  ",
"oo...   .............   ............+   ............   .......  ",
"oo............................................................  ",
"oo............................................................  ",
"oo............................................................  ",
"oo............................................................  ",
"oo............................................................  ",
"oo............................................................  ",
"oo......OOOO............OOOO............OOOO............OOOO..  ",
"oo......OOOO............OOOO............OOOO............OOOO..  ",
"oo....OOOOOO..........OOOOOO..........OOOOOO..........OOOOOO..  ",
"oo....OOOOOO..........OOOOOO..........OOOOOO..........OOOOOO..  ",
"oo..OOOOOO..........OOOOOO..........OOOOOO..........OOOOOO....  ",
"oo..OOOOOO. ........OOOOOO.+........OOOOOO..........OOOOOO ...  ",
"oo..OOOO.+..........OOOO.+..........OOOO............OOOO .....  ",
"oo..OOOO.+..........OOOO.+..........OOOO............OOOO .....  ",
"oo...   .............   .............  .............   .......  ",
"oo...   .............   ............    ............   .......  ",
"oo.                                                             ",
"oo.                                                             "
};
