/* XPM */
static char *result[] = {
/* columns rows colors chars-per-pixel */
"64 64 115 2 ",
"   c black",
".  c #060205",
"X  c #001500",
"o  c #001700",
"O  c #001A00",
"+  c #041E04",
"@  c #1A1A02",
"#  c #151115",
"$  c #1D1D1E",
"%  c #1F1C1F",
"&  c #003000",
"*  c #003400",
"=  c #003800",
"-  c #252500",
";  c #353500",
":  c #393700",
">  c #24241C",
",  c gray15",
"<  c #005D00",
"1  c #1E411E",
"2  c #3F5600",
"3  c #016001",
"4  c #006500",
"5  c #026902",
"6  c #0B6E0B",
"7  c #007800",
"8  c #007D00",
"9  c #1A7E1E",
"0  c #1C7F1F",
"q  c #226C22",
"w  c #454500",
"e  c #5F5E0A",
"r  c #767600",
"t  c #454345",
"y  c #5D5D5F",
"u  c #605E5F",
"i  c #49604B",
"p  c #777749",
"a  c #5D7D63",
"s  c #5E7E63",
"d  c #6D6A6D",
"f  c #6F6D6F",
"g  c #717177",
"h  c #7C7C7C",
"j  c gray49",
"k  c #7E7E7E",
"l  c #7F7E7F",
"z  c gray50",
"x  c #008400",
"c  c #0B870B",
"v  c #1A801D",
"b  c #369D06",
"n  c #208320",
"m  c #248820",
"M  c #2A8F2A",
"N  c #2E912E",
"B  c #2F942F",
"V  c #3C8E3F",
"C  c #339A33",
"Z  c #3DA03D",
"A  c #408B00",
"S  c #459048",
"D  c #548459",
"F  c #799949",
"G  c #608064",
"H  c #6E8D6E",
"J  c #6C8571",
"K  c #718671",
"L  c #72AB72",
"P  c #9B9A00",
"I  c #A2A200",
"U  c #A8A800",
"Y  c #A9A902",
"T  c #989620",
"R  c #9E9C22",
"E  c #ADCD17",
"W  c #C7CF00",
"Q  c #CBCA1F",
"!  c #C8E100",
"~  c #E7E700",
"^  c #ECEC00",
"/  c #E9E804",
"(  c #CECA20",
")  c #CDCB23",
"_  c #878661",
"`  c #8A8764",
"'  c #989762",
"]  c #9B9865",
"[  c #898879",
"{  c #A4A463",
"}  c #808080",
"|  c #808088",
" . c #898589",
".. c #868D8B",
"X. c #929092",
"o. c #949294",
"O. c #989798",
"+. c #8BA98E",
"@. c #94AA96",
"#. c #90B190",
"$. c #93B393",
"%. c #96B796",
"&. c #A2A0A2",
"*. c #A8A5A8",
"=. c #B5B2B5",
"-. c #BBB8BB",
";. c #92CC92",
":. c #A2C2A2",
">. c #B2CAB3",
",. c #BCDBBC",
"<. c #CBC7CB",
"1. c #C5E4C5",
"2. c #E5E2E5",
"3. c #EFEBEF",
"4. c None",
/* pixels */
"4.4.4.4.4.4.4.4.4.4.4.4.4.4.4.4.4.4.4.4.4.4.4.4.4.4.4.4.4.4.4.4.4.4.4.4.4.4.4.4.4.4.4.4.4.4.4.4.4.4.4.4.4.4.4.4.4.4.4.4.4.4.4.4.",
"4.4.4.4.4.4.4.4.4.4.4.4.4.4.4.4.4.4.4.4.4.4.4.4.4.4.4.4.4.4.4.4.4.4.4.4.4.4.4.4.4.4.4.4.4.4.4.4.4.4.4.4.4.4.4.4.4.4.4.4.4.4.4.4.",
"4.4.4.4.4.4.4.4.4.4.4.4.4.4.4.4.4.4.4.4.4.4.4.4.4.4.4.4.4.4.4.4.4.4.4.4.4.4.4.4.4.4.4.4.4.4.4.4.4.4.4.4.4.4.4.4.4.4.4.4.4.4.4.4.",
"4.4.4.4.4.4.4.4.4.4.4.4.4.4.4.4.4.4.4.4.4.4.4.4.4.4.4.4.4.4.4.4.4.4.4.4.4.4.4.4.4.4.4.4.4.4.4.4.4.4.4.4.4.4.4.4.4.4.4.4.4.4.4.4.",
"4.4.4.4.4.4.4.4.4.4.4.4.4.4.4.4.4.4.4.4.4.4.4.4.4.4.4.4.4.4.4.4.4.4.4.4.4.4.4.4.4.4.4.4.4.4.4.4.4.4.4.4.4.4.4.4.4.4.4.4.4.4.4.4.",
"4.4.4.4.4.4.4.4.4.4.4.4.4.4.4.4.4.4.4.4.4.4.4.4.4.4.4.4.4.4.4.4.4.4.4.4.4.4.4.4.4.4.4.4.4.4.4.4.4.4.4.4.4.4.4.4.4.4.4.4.4.4.4.4.",
"4.4.4.4.4.4.4.4.4.4.4.4.4.4.4.4.4.4.4.4.4.4.4.4.4.4.4.4.4.4.4.4.4.4.4.4.4.4.4.4.4.4.4.4.4.4.4.4.4.4.4.4.4.4.4.4.4.4.4.4.4.4.4.4.",
"4.4.4.4.4.4.4.4.4.4.4.4.4.4.4.4.4.4.4.4.4.4.4.4.4.4.4.4.4.4.4.4.4.4.4.4.4.4.4.4.4.4.4.4.4.4.4.4.4.4.4.4.4.4.4.4.4.4.4.4.4.4.4.4.",
"4.4.4.4.4.4.4.4.4.4.4.4.4.4.4.4.4.4.4.4.4.4.4.4.4.4.4.4.4.4.4.4.4.4.4.4.4.4.4.4.4.4.4.4.4.4.4.4.4.4.4.4.4.4.4.4.4.4.4.4.4.4.4.4.",
"4.4.4.4.4.4.4.4.4.4.4.4.4.4.4.4.4.4.4.4.4.4.4.4.4.4.4.4.4.4.4.4.4.4.4.4.4.4.4.4.4.4.4.4.4.4.4.4.4.4.4.4.4.4.4.4.4.4.4.4.4.4.4.4.",
"4.4.4.4.4.4.4.4.4.4.4.4.4.4.4.4.4.4.4.4.4.4.4.4.4.4.4.4.4.4.4.4.4.4.4.4.4.4.4.4.4.4.4.4.4.4.4.4.4.4.4.4.4.4.4.4.4.4.4.4.4.4.4.4.",
"4.4.4.4.4.4.4.4.4.4.4.4.4.4.4.4.4.4.4.4.4.4.4.4.4.4.4.4.4.4.4.4.4.4.4.4.4.4.4.4.4.4.4.4.4.4.4.4.4.4.4.4.4.4.4.4.4.4.4.4.4.4.4.4.",
"4.4.4.4.4.4.4.4.4.4.4.4.4.4.4.4.4.4.4.4.4.4.4.4.4.4.4.4.4.4.4.4.4.4.4.4.4.4.4.4.4.4.4.4.4.4.4.4.4.4.4.4.4.4.4.4.4.4.4.4.4.4.4.4.",
"4.4.4.4.4.4.4.4.4.4.4.4.4.4.4.4.4.4.4.4.4.4.4.4.4.4.4.4.4.4.4.4.4.4.4.4.4.4.4.4.4.4.4.4.4.4.4.4.4.4.4.4.4.4.4.4.4.4.4.4.4.4.4.4.",
"4.4.4.4.4.4.4.4.4.4.4.4.4.4.4.4.4.4.4.4.4.4.4.4.4.4.4.4.4.4.4.4.4.4.4.4.4.4.4.4.4.4.4.4.4.4.4.4.4.4.4.4.4.4.4.4.4.4.4.4.4.4.4.4.",
"4.4.4.4.4.4.4.4.4.4.4.4.4.4.4.4.4.4.4.4.4.4.4.4.4.4.4.4.4.4.4.4.4.4.4.4.4.4.4.4.4.4.4.4.4.4.4.4.4.4.4.4.4.4.4.4.4.4.4.4.4.4.4.4.",
"4.4.4.4.4.4.4.4.4.4.4.4.4.4.4.4.4.4.4.4.4.4.4.4.4.4.4.4.4.4.4.4.4.4.4.4.4.4.4.4.4.4.4.4.4.4.4.4.4.4.4.4.4.4.4.4.4.4.4.4.4.4.4.4.",
"4.4.4.4.4.4.4.4.4.4.4.4.4.4.4.4.4.4.4.4.4.4.4.4.4.4.4.4.4.4.4.4.4.4.4.4.4.4.4.4.4.4.4.4.4.4.4.4.4.4.4.4.4.4.4.4.4.4.4.4.4.4.4.4.",
"4.4.} z j h k k k k k k k k k k k k k k k k k k k k k k k k k k k k k k k k k k k k k k k k k k k k k k k k k k k k k y $   4.4.",
"4.4.k  .O.O.o.X.X.X.X.X.X.X.X.X.X.X.X.X.X.X.X.X.X.X.X.X.X.X.X.X.X.X.X.X.X.X.X.X.X.X.X.X.X.X.X.X.X.X.X.X.X.X.X.X.X.o.o.f >   4.4.",
"4.4.k O.<.2.-.=.=.=.=.=.=.=.=.=.=.=.=.=.=.=.=.=.=.=.=.=.=.=.=.=.=.=.=.=.=.=.=.=.=.=.=.=.=.=.=.=.=.=.=.=.=.=.=.=.=.=.-. .,   4.4.",
"4.4.h &.2.3.>.#.#.$.#.#.#.#.$.$.$.$.#.#.#.#.$.$.$.$.#.#.#.#.$.$.$.$.#.#.#.#.$.$.$.$.#.#.#.#.$.$.$.$.#.#.#.#.$.$.$.%.%.J ,   4.4.",
"4.4.h &.2.1.L M M N M M M M N B N N M M M M N B N N M M M M N B N N M M M M N B N N M M M M N B N N M M M M N B N N B q +   4.4.",
"4.4.h &.2.1.Z 8 8 c B C B n 5 4 7 c B C B n 5 4 7 c B C B n 5 4 7 c B C B n 5 4 7 c B C B n 5 4 7 c B C B n 5 4 7 x x 3 +   4.4.",
"4.4.h &.2.1.Z 8 8 B ;.,.:.H 1 & 4 C ;.,.:.H 1 & 4 C ;.,.:.H 1 & 4 C ;.,.:.H 1 & 4 C ;.,.:.H 1 & 4 C ;.,.:.H 1 & 4 x x 3 +   4.4.",
"4.4.h &.2.1.Z 8 8 Z ,.3.<. ., O < Z ,.3.<. ., O < Z ,.3.<. ., O < Z ,.3.<. ., O < Z ,.3.<. ., O < Z ,.3.<. ., O < x x 3 +   4.4.",
"4.4.h &.2.1.Z 8 8 B :.<.*.d % O < C :.<.*.d % O < C :.<.*.d % O < C :.<.*.d % O < C :.<.*.d % O < C :.<.*.d % O < x x 3 +   4.4.",
"4.4.h &.2.1.Z 8 8 N #.=.o.u % O < B $.=.o.u % O < B $.=.o.u % O < B $.=.o.u % O < B $.=.o.u % O < B $.=.o.u % O 3 x x 3 +   4.4.",
"4.4.h &.2.1.Z 8 8 N #.=.o.u % O < B $.=.o.u % O < B $.=.o.u % O < B $.=.o.u % O < B $.=.o.u % O < B $.=.o.u % O 3 x x 3 +   4.4.",
"4.4.h &.2.1.Z 8 8 N $.-.O.u % O < B %.-.O.u % O < B %.-.O.u % O < B %.-.O.u % O < B %.-.O.u % O < B %.-.O.u % O 3 x x 3 +   4.4.",
"4.4.h &.2.1.Z 8 8 N %.-.O.u % O < B %.-.O.u % O < B %.-.O.u % O < B %.-.O.u % O < B %.-.O.u % O < B %.-.O.u % O 3 x x 3 +   4.4.",
"4.4.h &.2.1.Z 8 8 n H  .f t # O 3 m H  .f t # O 3 m H  .f t # O 3 m H  .f t # O 3 m H  .f t # O 3 m H  .f t # O 3 x x 3 +   4.4.",
"4.4.h &.2.1.Z 8 8 6 1 , % # . + 3 6 1 , % # . + 3 6 1 , % # . + 3 6 1 , % # . + 3 6 1 , % # . + 3 6 1 , % # . O 3 x x 3 +   4.4.",
"4.4.k &.2.1.Z 8 8 4 & + , , + = 5 5 * + , , + = 5 5 * + , , + = 5 5 * + , , + = 5 5 * + , , + = 5 5 * + , , + * 5 x x 3 +   4.4.",
"4.4.k *.2.1.Z 8 8 7 4 q K K q 5 7 7 4 q K K q 5 7 7 4 q K K q 5 7 7 4 q K K q 5 7 7 4 q K K q 5 7 7 4 q K K q 4 7 x x 3 +   4.4.",
"4.4.y l <.>.S 9 9 v v S @.@.S v 0 0 v S @.@.S v 0 0 v V L L M x x x x M +.@.S v 9 9 v S @.@.S v 9 9 v S @.@.S v 0 0 n 3 +   4.4.",
"4.4.$ t l O.K a G G s J ....J s G G s J ....J s G G G D V M c x x x x n H ..J G s s G J ....J G s s G J ....J G s G G i %   4.4.",
"4.4.  $ u [ ] ] ` ` ] ' _ _ ' ] ` ` ] ' _ _ ' ] ` ` ] F m 7 4 < < 4 7 m F ' ` ` ] ] ` ` ' ' ` ` ] ] ` ` ' ' ` ` ] ] ` u %   4.4.",
"4.4.4.4.g ] ) Q T T Q Q T T Q Q T T Q Q T T Q Q T T ( E b 4 * O O * 5 b E ( T T Q Q T T Q Q T T Q Q T T Q Q T T Q ) R e @   4.4.",
"4.4.4.4.| { / ~ I I ~ ~ I I ~ ~ I I ~ ~ I I ~ ~ I I / ! A 1 o     o 1 A ! / I I ~ ~ I I ~ ~ I I ~ ~ I I ~ ~ I I ~ ^ U e @   4.4.",
"4.4.4.4.| { / / I I / / I I / / I I / / I I / / I I ^ W 2 X 4.4.4.4.X 2 W ^ I I / / I I / / I I / / I I / / I I / ^ U e @   4.4.",
"4.4.4.4.y p Y Y r r Y Y r r Y Y r r Y Y r r Y Y r r Y P :   4.4.4.4.  : P Y r r Y Y r r Y Y r r Y Y r r Y Y r r Y Y r w @   4.4.",
"4.4.4.4.$ > ; ; - - ; ; - - ; ; - - ; ; - - ; ; - - ; : 4.4.4.4.4.4.4.4.: ; - - ; ; - - ; ; - - ; ; - - ; ; - - ; ; - @ .   4.4.",
"4.4.4.4.                                                4.4.4.4.4.4.4.4.                                                    4.4.",
"4.4.4.4.4.4.4.4.4.4.4.4.4.4.4.4.4.4.4.4.4.4.4.4.4.4.4.4.4.4.4.4.4.4.4.4.4.4.4.4.4.4.4.4.4.4.4.4.4.4.4.4.4.4.4.4.4.4.4.4.4.4.4.4.",
"4.4.4.4.4.4.4.4.4.4.4.4.4.4.4.4.4.4.4.4.4.4.4.4.4.4.4.4.4.4.4.4.4.4.4.4.4.4.4.4.4.4.4.4.4.4.4.4.4.4.4.4.4.4.4.4.4.4.4.4.4.4.4.4.",
"4.4.4.4.4.4.4.4.4.4.4.4.4.4.4.4.4.4.4.4.4.4.4.4.4.4.4.4.4.4.4.4.4.4.4.4.4.4.4.4.4.4.4.4.4.4.4.4.4.4.4.4.4.4.4.4.4.4.4.4.4.4.4.4.",
"4.4.4.4.4.4.4.4.4.4.4.4.4.4.4.4.4.4.4.4.4.4.4.4.4.4.4.4.4.4.4.4.4.4.4.4.4.4.4.4.4.4.4.4.4.4.4.4.4.4.4.4.4.4.4.4.4.4.4.4.4.4.4.4.",
"4.4.4.4.4.4.4.4.4.4.4.4.4.4.4.4.4.4.4.4.4.4.4.4.4.4.4.4.4.4.4.4.4.4.4.4.4.4.4.4.4.4.4.4.4.4.4.4.4.4.4.4.4.4.4.4.4.4.4.4.4.4.4.4.",
"4.4.4.4.4.4.4.4.4.4.4.4.4.4.4.4.4.4.4.4.4.4.4.4.4.4.4.4.4.4.4.4.4.4.4.4.4.4.4.4.4.4.4.4.4.4.4.4.4.4.4.4.4.4.4.4.4.4.4.4.4.4.4.4.",
"4.4.4.4.4.4.4.4.4.4.4.4.4.4.4.4.4.4.4.4.4.4.4.4.4.4.4.4.4.4.4.4.4.4.4.4.4.4.4.4.4.4.4.4.4.4.4.4.4.4.4.4.4.4.4.4.4.4.4.4.4.4.4.4.",
"4.4.4.4.4.4.4.4.4.4.4.4.4.4.4.4.4.4.4.4.4.4.4.4.4.4.4.4.4.4.4.4.4.4.4.4.4.4.4.4.4.4.4.4.4.4.4.4.4.4.4.4.4.4.4.4.4.4.4.4.4.4.4.4.",
"4.4.4.4.4.4.4.4.4.4.4.4.4.4.4.4.4.4.4.4.4.4.4.4.4.4.4.4.4.4.4.4.4.4.4.4.4.4.4.4.4.4.4.4.4.4.4.4.4.4.4.4.4.4.4.4.4.4.4.4.4.4.4.4.",
"4.4.4.4.4.4.4.4.4.4.4.4.4.4.4.4.4.4.4.4.4.4.4.4.4.4.4.4.4.4.4.4.4.4.4.4.4.4.4.4.4.4.4.4.4.4.4.4.4.4.4.4.4.4.4.4.4.4.4.4.4.4.4.4.",
"4.4.4.4.4.4.4.4.4.4.4.4.4.4.4.4.4.4.4.4.4.4.4.4.4.4.4.4.4.4.4.4.4.4.4.4.4.4.4.4.4.4.4.4.4.4.4.4.4.4.4.4.4.4.4.4.4.4.4.4.4.4.4.4.",
"4.4.4.4.4.4.4.4.4.4.4.4.4.4.4.4.4.4.4.4.4.4.4.4.4.4.4.4.4.4.4.4.4.4.4.4.4.4.4.4.4.4.4.4.4.4.4.4.4.4.4.4.4.4.4.4.4.4.4.4.4.4.4.4.",
"4.4.4.4.4.4.4.4.4.4.4.4.4.4.4.4.4.4.4.4.4.4.4.4.4.4.4.4.4.4.4.4.4.4.4.4.4.4.4.4.4.4.4.4.4.4.4.4.4.4.4.4.4.4.4.4.4.4.4.4.4.4.4.4.",
"4.4.4.4.4.4.4.4.4.4.4.4.4.4.4.4.4.4.4.4.4.4.4.4.4.4.4.4.4.4.4.4.4.4.4.4.4.4.4.4.4.4.4.4.4.4.4.4.4.4.4.4.4.4.4.4.4.4.4.4.4.4.4.4.",
"4.4.4.4.4.4.4.4.4.4.4.4.4.4.4.4.4.4.4.4.4.4.4.4.4.4.4.4.4.4.4.4.4.4.4.4.4.4.4.4.4.4.4.4.4.4.4.4.4.4.4.4.4.4.4.4.4.4.4.4.4.4.4.4.",
"4.4.4.4.4.4.4.4.4.4.4.4.4.4.4.4.4.4.4.4.4.4.4.4.4.4.4.4.4.4.4.4.4.4.4.4.4.4.4.4.4.4.4.4.4.4.4.4.4.4.4.4.4.4.4.4.4.4.4.4.4.4.4.4.",
"4.4.4.4.4.4.4.4.4.4.4.4.4.4.4.4.4.4.4.4.4.4.4.4.4.4.4.4.4.4.4.4.4.4.4.4.4.4.4.4.4.4.4.4.4.4.4.4.4.4.4.4.4.4.4.4.4.4.4.4.4.4.4.4.",
"4.4.4.4.4.4.4.4.4.4.4.4.4.4.4.4.4.4.4.4.4.4.4.4.4.4.4.4.4.4.4.4.4.4.4.4.4.4.4.4.4.4.4.4.4.4.4.4.4.4.4.4.4.4.4.4.4.4.4.4.4.4.4.4.",
"4.4.4.4.4.4.4.4.4.4.4.4.4.4.4.4.4.4.4.4.4.4.4.4.4.4.4.4.4.4.4.4.4.4.4.4.4.4.4.4.4.4.4.4.4.4.4.4.4.4.4.4.4.4.4.4.4.4.4.4.4.4.4.4.",
"4.4.4.4.4.4.4.4.4.4.4.4.4.4.4.4.4.4.4.4.4.4.4.4.4.4.4.4.4.4.4.4.4.4.4.4.4.4.4.4.4.4.4.4.4.4.4.4.4.4.4.4.4.4.4.4.4.4.4.4.4.4.4.4."
};
