/* XPM */
static char *result[] = {
/* columns rows colors chars-per-pixel */
"64 64 203 2 ",
"   c gray7",
".  c gray10",
"X  c gray11",
"o  c gray12",
"O  c #232323",
"+  c #272727",
"@  c #282828",
"#  c gray16",
"$  c gray17",
"%  c #2D2D2D",
"&  c gray21",
"*  c gray22",
"=  c #3A3A3A",
"-  c #006200",
";  c #026802",
":  c #006E00",
">  c #007600",
",  c #017C01",
"<  c #157315",
"1  c #1D791B",
"2  c gray26",
"3  c #494949",
"4  c gray29",
"5  c gray30",
"6  c #4E4E4E",
"7  c gray31",
"8  c #505050",
"9  c gray32",
"0  c #535353",
"q  c gray33",
"w  c #555555",
"e  c #565656",
"r  c gray35",
"t  c gray36",
"y  c #5F5F5F",
"u  c #606061",
"i  c #626262",
"p  c #626264",
"a  c #656565",
"s  c gray40",
"d  c #676767",
"f  c #686868",
"g  c gray42",
"h  c #6F6F6E",
"j  c #717171",
"k  c #727272",
"l  c #777670",
"z  c gray46",
"x  c #777777",
"c  c #7F7E76",
"v  c gray47",
"b  c #7C7C7C",
"n  c gray49",
"m  c #018001",
"M  c #0D840D",
"N  c #178A17",
"B  c #1D861D",
"V  c #1F8F1F",
"C  c #278927",
"Z  c #318231",
"A  c #398C3A",
"S  c #319631",
"D  c #418F41",
"F  c #4A964A",
"G  c #579657",
"H  c #5C9E5A",
"J  c #4AA348",
"K  c #54A852",
"L  c #679C63",
"P  c #69A167",
"I  c #6BA56A",
"U  c #6DB46D",
"Y  c #71A871",
"T  c #7EA57E",
"R  c #82817B",
"E  c #92907F",
"W  c #81BB7F",
"Q  c #7F7F80",
"!  c #818180",
"~  c #858586",
"^  c #868686",
"/  c #868687",
"(  c #8C8A81",
")  c #898987",
"_  c #8B8A87",
"`  c #8B8B88",
"'  c #8D8D8D",
"]  c #929186",
"[  c #9B9887",
"{  c #92918B",
"}  c #94928A",
"|  c #98968D",
" . c #9B988A",
".. c #9F9C8D",
"X. c gray57",
"o. c #959595",
"O. c #979795",
"+. c #999998",
"@. c gray60",
"#. c #9B9B9A",
"$. c #9C9C9A",
"%. c gray61",
"&. c #9E9E9D",
"*. c #8EAD8E",
"=. c #86B084",
"-. c #84BE82",
";. c #8AB688",
":. c #99B693",
">. c #9DB49D",
",. c #A5A291",
"<. c #A8A590",
"1. c #ABA792",
"2. c #A3A29C",
"3. c #AAA79A",
"4. c #B2AF9B",
"5. c #A0BC9B",
"6. c #A2A2A2",
"7. c #A5A5A3",
"8. c #A7A7A7",
"9. c #AEACA2",
"0. c #AAAAAB",
"q. c #AFAFAC",
"w. c #B5B2A3",
"e. c #B6B4A6",
"r. c #B9B6A6",
"t. c #BEBCA7",
"y. c #B0B0AA",
"u. c #B7B5AA",
"i. c #B4B3AC",
"p. c #B6B6AF",
"a. c #B9B8AD",
"s. c #B1B1B0",
"d. c #B7B7B7",
"f. c #B0BFB0",
"g. c #BCBBB4",
"h. c #BBBBB9",
"j. c #BEBEBB",
"k. c #8FC18E",
"l. c #93C692",
"z. c #A1CB9F",
"x. c #A5C5A2",
"c. c #A3CFA1",
"v. c #ACD1A8",
"b. c #B8CBB0",
"n. c #BFC4BD",
"m. c #B8D9B5",
"M. c #C3C1B4",
"N. c #C0CEB6",
"B. c #C7C6BC",
"V. c #CAC9B8",
"C. c #C7D4BA",
"Z. c #C1DBB9",
"A. c #D1D0BD",
"S. c #C0C0C0",
"D. c gray76",
"F. c #C4C4C3",
"G. c #C6C6C6",
"H. c gray78",
"J. c #C8CAC0",
"K. c gray79",
"L. c #CACACA",
"P. c #CBCBCA",
"I. c #CDCCCC",
"U. c gray81",
"Y. c #C2D2C0",
"T. c #C9D9C6",
"R. c #D1D1C9",
"E. c #D3D3CE",
"W. c #D5DDCC",
"Q. c #D3D0D3",
"!. c LightGray",
"~. c #D7D7D0",
"^. c #D8D7D7",
"/. c #D9D8D1",
"(. c #DBDBD1",
"). c #DCDCD2",
"_. c #DFDED3",
"`. c #DADADA",
"'. c #DDDDDD",
"]. c #E1DFD7",
"[. c #D1E1C8",
"{. c #DBE3CF",
"}. c #DDE6DD",
"|. c #DBECDB",
" X c #E2E2D2",
".X c #E1E1D4",
"XX c #E6E6D5",
"oX c #E4E4D6",
"OX c #E6E7D6",
"+X c #E7E7D6",
"@X c #E8E7D7",
"#X c #E4EADF",
"$X c #E9E9D8",
"%X c #EBEADA",
"&X c #E2E0E1",
"*X c #E7E6E6",
"=X c #EFEFE4",
"-X c #EBEAEA",
";X c #F0EDEF",
":X c #F2F1F0",
">X c #F6F5F3",
",X c #FCF8F7",
"<X c #000000",
/* pixels */
"<X<X<X<X<X<X<X<X<X<X<X<X<X<X<X<X@.+.+.+.+.+.+.+.+.<X<X<X<X<X<X<X<X<X<X<X<X<X<X<X<X<X<X<X<X<X<X<X<X<X<X<X<X<X<X<X<X<X<X<X<X<X<X<X",
"<X<X<X<X<X<X<X<X<X<X<X<X%.2.2.) 0 3 t b ^ ^ ' #.+.n u u u <X<X<X<X<X<X<X<X<X<X<X<X<X<X<X<X<X<X<X<X<X<X<X<X<X<X<X<X<X<X<X<X<X<X<X",
"<X<X<X<X<X<X<X<X<X<X<X<Xj g h i O   # 6 g z b ' +.^ z b ^ v <X<X<X<X<X<X<X<X<X<X<X<X<X<X<X<X<X<X<X<X<X<X<X<X<X<X<X<X<X<X<X<X<X<X",
"<X<X<X<X<X<X<X<X/ ^ ` b # . X X X X . O w h z b X.+.+.&.d.' h h j <X<X<X<X<X<X<X<X<X<X<X<X<X<X<X<X<X<X<X<X<X<X<X<X<X<X<X<X<X<X<X",
"<X<X<X<X{ @.$./ = # % # o . . X X X . o % q h x b ' #.#.&.q.9.,.q./ a a a <X<X<X<X<X<X<X<X<X<X<X<X<X<X<X<X<X<X<X<X<X<X<X<X<X<X<X",
"<X<Xo.) q 3 5 2 o . . . X X X X X X X X o & 8 h z b ' #.+.6.s.a.e.7.| ] #.Q u u u <X<X<X<X<X<X<X<X<X<X<X<X<X<X<X<X<X<X<X<X<X<X<X",
"<Xy.S.8.#       . X X X X X X X X X X X X o & q g z b ' +.+.6.s.w.a.a.r.a.+.! c ^ v <X<X<X<X<X<X<X<X<X<X<X<X<X<X<X<X<X<X<X<X<X<X",
"#.U.,X^.9 & = & o . . . X X X X X X X X X O + % 9 g z b X.+.+.&.d.w.w.g.4.a.p.4.g.' h h j <X<X<X<X<X<X<X<X<X<X<X<X<X<X<X<X<X<X<X",
"+.d.K.P.^.`.&XS.& . X X X X X X X X X X X X X o % 7 g x b ' #.+.&.s.a.4.g.w.w.g.4.q.9.,.q./ a a a <X<X<X<X<X<X<X<X<X<X<X<X<X<X<X",
"+.j./.~.`.`.`.!.s.8.q.o.+       . X X X X X X X o % 7 h z b ' #.+.6.q.a.w.u.u.w.a.e.r.a.e.7.| ] #.Q u p <X<X<X<X<X<X<X<X<X<X<X<X",
"+.J.%XXXR.P.P.R.*X-X;X`.! g h i O     . . X X X X O & q h z b ' +.+.6.s.w.u.u.w.a.e.e.a.w.a.a.r.a.+.! c <X<X<X<X<X<X<X<X<X<X<X<X",
"+.J.%X+X+X+X@X XK.F.F.P.-X:X>X^.9 & = & o . . . X O + % e h z b X.+.+.&.d.w.w.g.4.a.a.4.g.w.w.g.4.a.a.<.l h j k <X<X<X<X<X<X<X<X",
"+.J.%X+X+X+X+XXX X.X X_.I.H.H.P.^.`.&XS.& . X X X X X o # 9 h x b ' #.+.&.s.a.4.g.w.w.g.4.a.a.4.g.w.w.g.<.9.d.0.k a a s <X<X<X<X",
"+.J.%X+X+X+X+X+X@X@X@XXX(.~.~./.`.`.`.!.s.8.q.o.+       . % 8 h z b ' #.+.6.q.a.w.u.u.w.a.e.e.a.w.u.u.w.a.e.u.S.G.L.#.6 <X<X<X<X",
"+.n.oX+X+X+X+X+X+X+X+X+X@X@X$X XH.H.H.H.*X-X;X`.! g h i O . % 6 g z b ' +.+.6.s.w.u.u.w.a.e.e.a.w.u.u.4.u.M.R.^.L.H.o.6 <X<X<X<X",
"+.d./.+X+X+X+X+X+X+X+X+X+X+X@XoXE.).).U.F.F.D.H.-X:X>X^.9 = 2 3 w g z b X.+.+.&.d.w.w.g.4.a.a.4.g.w.r.F.r.R.-X!.x r 8 6 <X<X<X<X",
"+.d.~.+X+X+X+X+X+X+X+X+X+X+X+X+XoX~.~..XU./.(.L.K.K.H.P.^.'.&XF.3 8 h x b ' #.+.&.s.a.4.g.w.w.g.4.u.U.:X;X7.x z i 9 5 6 <X<X<X<X",
"<Xy.V.+X+X+X+X+X+X+X+X+X+X+X+X+X@X.X/.~.)././.(.K.R.R.K.^.`.`.!.s.h.L.S.b x ^ o.+.6.7.,.4.e.w.r./.-X!.8.&.x y i r q 8 6 <X<X<X<X",
"<XO.t.+X+X+X+X+X+X+X+X+X+X+X+X+X+X@X.X~.)././.)./.(.).E.F.K.H.H.*X-X-X&Xs.7.s.d.#.o.o.+.9.P.E.V.P.U.8.g i a s i e w 9 6 <X<X<X<X",
"<XO.p.+X+X+X+X+X+X+X+X+X+X+X+X@X@X@X$XoXE.).).E..X~.~..XE.).).P.F.D.S.H.-X:X:X*Xs.7.7.0.F.'.-X^.^ z j s s s i t e q 8 6 <X<X<X<X",
"<XO.p.+X+X+X+X+X+X+X+X+X+X+XOXOXXXXXOXXX X~.~..XE.).).E..X/.U.I.L.L.L.L.H.H.H.I.*X-X-X-X;Xq.^ ^ x z h s s i t e w 8 5 6 <X<X<X<X",
"<XO.p.+X+X+X+X+X+X+X@X$X+X[.z.=.K J J K ;.Y.%X:X_.~./.).~.U.P.P.G.L.L.G.G.S.j.D.!.`.H.0.8.^ j z z h g s s i t w w 8 6 <X<X<X<X<X",
"<XO.s._.XX+X+X+X+X$X{.[.XXz.=.I S S V B A ;.T.|.=X].~.).Q.I.I.P.G.G.G.G.H.G.F.S.j.g.#.z j z x x x g a s s y r w 9 7 4 <X<X<X<X<X",
"<XO.0.U.oX@X+X+X+XXXm.l.[.5.=.c.c.c.k.P B A I l.}.=X].L.f.J.U.I.L.G.G.K.F.H.H.S.S.w.[ x x x x x z g s s a t w q 6 5 4 <X<X<X<X<X",
"<XO.0.U.oX@X+X+XOXZ.U S l.[.#X{.{.{.{.C.P C M V P T.;Xf.S l.&XP.F.H.H.F.K.G.S.S.S.w.[ x x x x z g s s a i r w q 6 5 4 <X<X<X<X<X",
"<Xo.0.U.oX@X$XXXZ.U V m S m.,X@X@X$XoX~.N.I B m B Y Y.Y.N l.-XI.H.G.G.H.G.H.G.S.S.&.R x x x x z f a s a r e 9 8 5 4 <X<X<X<X<X<X",
"<X<Xy.B. X$XXXZ.U V , m , -.=X=X%X$X.X~._.b.H > , B Y x.N z.;XI.H.G.G.H.G.H.G.S.S.X.z x x x z h d s s i e 9 8 5 5 <X<X<X<X<X<X<X",
"<X<X<X4._.OXZ.U N , m m m K m.>X-X$XXX.XE.].5.1 , , C F M z.;XP.F.H.H.F.K.F.S.S.j.X.z x x x j s s s i t e 8 5 5 5 <X<X<X<X<X<X<X",
"<X<X<X7.(.Z.U N m m m m m M U >X%X@X_.E..X~.E.x.1 > m M m c.;XI.L.G.G.K.F.S.S.j.4.( z x x x j s s i t e w 8 5 5 6 <X<X<X<X<X<X<X",
"<X<X<X6.(.{.v.-.U F C m m , N U #X=X X(.~.].T.=.< ; > m m c.;XP.G.G.G.G.H.F.S.j.4.( z x x h g s s y e q 8 7 2 * <X<X<X<X<X<X<X<X",
"<X<X<X7.).%X%X@XZ.=.D m B S N , ;.[.=XXX/.x.P Z ; - ; > m c.;XP.G.G.G.G.H.F.S.h...R z x x g a s a r q q 6 6 2 # <X<X<X<X<X<X<X<X",
"<X<X<X6./.@X+X@XXX:.A M G k.U 1 1 x.:X@X XL < < < < ; ; , z.;XI.L.G.G.K.S.S.D.d.! z x x z g s a y r w q 6 6 2 # <X<X<X<X<X<X<X<X",
"<X<X<X&.H..X@X@X+X:.A M G Y.#XC.C.R.(.oXE.C.N.f.k.I Z ; ; x.;XP.F.H.H.D.S.S.D.d.! z x z g s s a r w w q 6 6 2 # <X<X<X<X<X<X<X<X",
"<X<X<X6.G._.@X@XOX:.A M G T.,X%X=XoX/.~.).(._._.Y.f.>.T T J.`.I.H.G.K.I.D.S.D.d.! z x z f s a y e w 9 8 5 7 2 # <X<X<X<X<X<X<X<X",
"<X<X<X2.g./.@X@XOX:.A M G T.>X$X-X&X(.~.)././.)./.Q.U.Q.Q.f.f.I.H.G.K.I.D.S.j.q.! z z h d s i r e w 9 5 5 2 * @ <X<X<X<X<X<X<X<X",
"<X<X<X<X1.A.$X@XOX:.A M G T.>X$X-X`.~..XE.).).E..XE.P.I.I.*.*.n.H.L.H.S.S.D.p...b x j s s s y w w w 8 5 5 & @ <X<X<X<X<X<X<X<X<X",
"<X<X<X<X$.J.%X@XOX:.A M G T.>X+X@XoX(.E..X~.~..XE.I.I.I.I.K.>.=.}.^.S.S.S.D.8.b x x j s s i t w w 8 5 5 5 & @ <X<X<X<X<X<X<X<X<X",
"<X<X<X<X@.J.%X+XOXv.J m B v.>X+X+X)./.).~.(.(.~.).E.P.I.I.Q.*.Z v.}.^.S.S.F.7.x x h g s s y e w w 8 5 3 = % @ <X<X<X<X<X<X<X<X<X",
"<X<X<X<X@.J.%X+X+X[.W B > z.,X+X+X(./.).~.(.(./.).E.P.I.I.Q.T < W |.*XS.S.F.8.x x g a s a r q w w 8 6 3 % + @ <X<X<X<X<X<X<X<X<X",
"<X<X<X<X@.B.+X+X+X%XN.L < ;.#X%X+X@X_.E..X~.E.W.E.U.I.I.I.Q.T < -.|.*XS.S.S.6.x z g s a y r w w q 8 5 2 % @ @ <X<X<X<X<X<X<X<X<X",
"<X<X<X<X@.h.(.+X+X@XoXC.L Z I :X%X+XXX.XE._.b.=.}.'.P.I.I.Q.T < -.|.*XS.S.e.[ z g s s a y r w q 7 6 2 % # <X<X<X<X<X<X<X<X<X<X<X",
"<X<X<X<X@.d./.+X+X+X$XXXN.L Z I #X=X_.~._.b.P F |.&XL.I.I.f.G < -.|.*XS.S.&.R z f a s a r e w q 6 7 2 + # <X<X<X<X<X<X<X<X<X<X<X",
"<X<X<X<X%.i.A.+X+X+X+X@X$Xb.P A ;.[.*X~.N.I B V |.&XI.P.f.P 1 < c.}.^.S.S.X.z z f s s i e w q 8 6 2 & # # <X<X<X<X<X<X<X<X<X<X<X",
"<X<X<X<X<X2.t.+X+X+X+X+X+X$X[.k.Z x.>XC.P B , V T.~.n.5.L B > A {.^.S.S.j.X.z z f a i t e w 9 5 5 & + # # <X<X<X<X<X<X<X<X<X<X<X",
"<X<X<X<X<Xo.p.+X+X+X+X+X+X@XOX[.k.[.W.P B m m M P T G N M : F {.!.G.S.j.4.( j f s i t e w w 9 5 5 & + # # <X<X<X<X<X<X<X<X<X<X<X",
"<X<X<X<X<Xo.p.+X+X+X+X+X+X+X@XOX[.#XT.U M , m m B C M , : H Y.'.U.F.S.j.4.( h s s i t w w 9 7 3 = % # @ <X<X<X<X<X<X<X<X<X<X<X<X",
"<X<X<X<X<Xo.p.@X@X+X+X+X+X+X+X+X$X$X{.c.J M , m m , m C G Y.*XP.H.F.S.h...c g s s y r w w 8 6 3 % + # # <X<X<X<X<X<X<X<X<X<X<X<X",
"<X<X<X<X<Xo.q. XXX+X+X+X+X+X+X+X+X+X$X{.v.J M m M M S =.}.'.L.K.F.S.D.d.! g a s a t q w q 8 5 2 % + # # <X<X<X<X<X<X<X<X<X<X<X<X",
"<X<X<X<X<X~ | r. X@X+X+X+X+X+X+X+X+X+XOX{.v.K M F U v.#X^.U.H.F.K.F.D.d.! g s a i r w q 7 6 2 % # # # # <X<X<X<X<X<X<X<X<X<X<X<X",
"<X<X<X<X<X<X~ | t.M.A.$X$X@X+X+X@X(.).XX/.W.c.K C H b.>X!.U.U.H.G.D.g.3.z s s a r e w q 6 6 2 + # # # # <X<X<X<X<X<X<X<X<X<X<X<X",
"<X<X<X<X<X<X<X)  .[ 4.A.A. X%X+X_././.(.~.(.W.v.J Z =.:X!.!.!.H.G.D.a.,.h a s i e w q 8 6 7 2 # # # # # <X<X<X<X<X<X<X<X<X<X<X<X",
"<X<X<X<X<X<X<X<X^ / } <.<.V. X).E.).).E..X~.~.{.v.D P :X!.!.U.F.K.G.p.[ h a i t e w 9 5 5 3 = # # # % @ <X<X<X<X<X<X<X<X<X<X<X<X",
"<X<X<X<X<X<X<X<X<X<X<X_ ` ,.4.r.(.~.~..XE.).).E.{.N.J.@X^.^.!.K.F.F.6.h d i t e w w 9 5 5 = # # # # $ <X<X<X<X<X<X<X<X<X<X<X<X<X",
"<X<X<X<X<X<X<X<X<X<X<X<X<X{ ] | t.t.M./._././.).~._.).~.]./.P.F.S.a.| a s i t w w 9 7 5 6 & + # # # # <X<X<X<X<X<X<X<X<X<X<X<X<X",
"<X<X<X<X<X<X<X<X<X<X<X<X<X<X~ )  .[ 3.M.A.E.(._.~.(.(.~.).E.K.F.S.w.E s i y r w w 8 5 3 2 % + # # # @ <X<X<X<X<X<X<X<X<X<X<X<X<X",
"<X<X<X<X<X<X<X<X<X<X<X<X<X<X<X<X^ / } <.<.V.~.P._.~.~..XE.I.I.K.S.e.E a y r w w q 8 6 3 % + + + # @ @ <X<X<X<X<X<X<X<X<X<X<X<X<X",
"<X<X<X<X<X<X<X<X<X<X<X<X<X<X<X<X<X<X<X_ ` ,.4.w.P.).).E..X~.H.D.S.w.E a y r w q 7 5 6 3 % O O O # <X<X<X<X<X<X<X<X<X<X<X<X<X<X<X",
"<X<X<X<X<X<X<X<X<X<X<X<X<X<X<X<X<X<X<X<X<X{ ] | w.t.B.U.~.P.G.H.S.| h i r e w q 6 5 6 3 % + + @ <X<X<X<X<X<X<X<X<X<X<X<X<X<X<X<X",
"<X<X<X<X<X<X<X<X<X<X<X<X<X<X<X<X<X<X<X<X<X<X~ )  .[ 3.M.M.D.H.H.S.! r t e w q 9 6 6 3 = % @ @ @ <X<X<X<X<X<X<X<X<X<X<X<X<X<X<X<X",
"<X<X<X<X<X<X<X<X<X<X<X<X<X<X<X<X<X<X<X<X<X<X<X<X^ / } <.<.g.F.j.S.! t y e q 9 5 3 3 2 # # <X<X<X<X<X<X<X<X<X<X<X<X<X<X<X<X<X<X<X",
"<X<X<X<X<X<X<X<X<X<X<X<X<X<X<X<X<X<X<X<X<X<X<X<X<X<X<X_ ` ,.4.4.j.! t y e 8 6 3 & % $ <X<X<X<X<X<X<X<X<X<X<X<X<X<X<X<X<X<X<X<X<X",
"<X<X<X<X<X<X<X<X<X<X<X<X<X<X<X<X<X<X<X<X<X<X<X<X<X<X<X<X<X{ ] | 4.c t y e 8 2 = <X<X<X<X<X<X<X<X<X<X<X<X<X<X<X<X<X<X<X<X<X<X<X<X",
"<X<X<X<X<X<X<X<X<X<X<X<X<X<X<X<X<X<X<X<X<X<X<X<X<X<X<X<X<X<X~ )  .l t t q 6 4 @ <X<X<X<X<X<X<X<X<X<X<X<X<X<X<X<X<X<X<X<X<X<X<X<X",
"<X<X<X<X<X<X<X<X<X<X<X<X<X<X<X<X<X<X<X<X<X<X<X<X<X<X<X<X<X<X<X<X/ h y t 7 <X<X<X<X<X<X<X<X<X<X<X<X<X<X<X<X<X<X<X<X<X<X<X<X<X<X<X"
};
