/* XPM */
static char *result[] = {
/* columns rows colors chars-per-pixel */
"64 64 6 1 ",
"  c black",
". c #808080",
"X c black",
"o c #C0C0C0",
"O c white",
"+ c #008000",
/* pixels */
"oooooooooooooooo.........ooooooooooooooooooooooooooooooooooooo..",
"OOOOOOOOOOOOoooo.........ooooOOOOOOOOOOOOOOOOOOOOOOOOOOOOOOOOO  ",
"OOoooooooooo..... ............ooooooooooooooooooooooooooooooo.  ",
"OO...........      ......oo.o.................................  ",
"OO..........        .......o.oooo.......oooo............oooo..  ",
"Oo......             .......ooooooooo....ooo............oooo..  ",
"oooo..                ......oooooooooo....oo..........oooooo..  ",
".oOOooo..              ......ooooooooooooo............oooooo..  ",
".oooOOOo..              .......o.oooooooooooo.......oooooo....  ",
".ooooooooooo....         .......ooooooooooooooooo...oooooo ...  ",
".oooooooOOOOooo....       ......oooooooooooooooooo..oooo......  ",
".oooooooooooOOOO....       ......oo.oooooooooooooooo..........  ",
".oooooooooooooooOOOo.....   .......ooooooooooooooooooooo......  ",
".ooooooooooooooooooooooo.... .......ooooooooooooooooooooooo...  ",
".oooooooooooooooooooOOOOooo.  ......ooooooooooooooooooooooo...  ",
".oooooooooooooooooooooooOOOOo........ooooooooooooooooOOO......  ",
".oooooooooooooooooooooooooooOOOOo......o.ooooooooooOOo........  ",
"oooooooooooooooooooooooooooooooooooo....ooooooooOOooo.........  ",
"Oo.oooooooooooooooooooooooooooooOOOOooooooooooooooo...........  ",
"Oo.oooooooooooooooooooooooooooooooooOOOOoooooOOOo.............  ",
"Oo.oooooooooooooooooooooooooooooooooooooOOOOOo................  ",
"Oo.oooooooooooo......oooooooooooooooooooooooo..............o..  ",
"Oo.oooooooooooo.......ooooooooooooooooooooo................o..  ",
"Oo.oooooooooOooooooo....ooooooooooooooooooo................o..  ",
"Oo.oooooooo.ooOoooooo....ooo.oooooooooooooo...................  ",
"Oo.oooooo....oOooooooo....oo.oOooooooooooo................ ...  ",
"Oo.oooooo..+.oooooooooo+...o.oOoooooooooo.....................  ",
"OO..oooo..++..oOooooooo......oOoooooooooo.....................  ",
"OO..ooo..++++.oOoooooooo.+++.oOoooooooooo.....................  ",
"OO..ooooo..++..oOoooooo..+++.oOoooooooooo.....................  ",
"OO..ooooo..+....oooooo...+++.oOoooooooooo.....................  ",
"OO..ooooo..+.....oOoo....+++.oOooooooooo............... ......  ",
"OO..ooooo..+.oooooooooooo....oOooooooooo............... ......  ",
"OO..ooooo..+.oOooooooooooooooooooooooooo............... ......  ",
"OO..ooooo..+.oOooooooooooooooooooooooooo......................  ",
"OO..ooooo..+.oOooooooooooooooooooooooooo......................  ",
"OO...oooo..+.oOoooooooooooooooooOoooooo.................oooo..  ",
"OO...ooooo.+.oOoooooooooooooooo.ooooooo.................oooo..  ",
"OO...oooooo..oOoooooooooooooooo..oOoooo................ooooo..  ",
"OO...oooooo..oOoooooooooooooooo+.oOoooo...............oooooo..  ",
"OO...ooooooo..oOooooooo.Ooooooo+.oOoooo............. .oooo....  ",
"OO...oooooooo..oOooooo..Oooooo...oOooo.............. .oooo ...  ",
"oO..oooooooooo..ooooo...Ooooo...ooooo............... .oo......  ",
"oO..o..oooooooo..oOo....oooo....Ooooo............... .oo .....  ",
"OO.....ooooooooo.oo...++....+.oOooooo............... .........  ",
"OO.....ooooooooooooo..++.....oooooooo...............   .......  ",
"OO.....ooooooooooooo...++++.ooooooooo.........................  ",
"OO.....oooooooooooooo..++..oOooooooo..........................  ",
"OO......oooooooooooooo....oOoooooooo..........................  ",
"OO........ooooooooooooo...oOoooooooo..........................  ",
"OO.........ooooooooooooo..oOoooooooo..........................  ",
"OO...........oooooooooooo.oOoooooooo..........................  ",
"OO......oo. ....ooooooooooooooooooo.....................oooo..  ",
"OO......ooo.......ooooooooooooooooo.....................oooo..  ",
"OO....oooooo.......oooooooooooooooo...................oooooo..  ",
"OO....oooooo..... ...oooooooooooooo...................oooooo..  ",
"OO..oooooo..............ooooooooooo.................oooooo....  ",
"OO..oooooo. ..............oooooooo..................oooooo ...  ",
"OO..oooo.+..........o......oooooo...................oooo .....  ",
"OO..oooo.+..........oooo.....oooo...................oooo .....  ",
"OO...   .............   ...  ...o........ ..........   .......  ",
"OO...   .............   ............................   .......  ",
"OO.                          ...........                        ",
"OO.                                  .                          "
};
