/* XPM */
static char *result[] = {
/* columns rows colors chars-per-pixel */
"64 64 171 2 ",
"   c black",
".  c #010101",
"X  c gray4",
"o  c gray5",
"O  c #171715",
"+  c gray10",
"@  c #232323",
"#  c gray15",
"$  c #2C2C2C",
"%  c gray18",
"&  c #343433",
"*  c gray22",
"=  c #3B3B3A",
"-  c #3E3E3E",
";  c #001B6E",
":  c #091873",
">  c #062379",
",  c #1E4A76",
"<  c #444444",
"1  c #484847",
"2  c #4E4E4E",
"3  c #4E4E4F",
"4  c #525250",
"5  c gray35",
"6  c #5D5D5D",
"7  c gray39",
"8  c #656564",
"9  c gray40",
"0  c #676767",
"q  c DimGray",
"w  c #6D6D6C",
"e  c #727272",
"r  c gray46",
"t  c gray47",
"y  c #7E7E7D",
"u  c gray50",
"i  c #148914",
"p  c #00CB00",
"a  c #54B14F",
"s  c #5AA15A",
"d  c #48D444",
"f  c #4BF049",
"g  c #838278",
"h  c #928F7E",
"j  c #95927D",
"k  c #87F07E",
"l  c #070184",
"z  c #1A148A",
"x  c #2B0096",
"c  c #31039F",
"v  c #092E87",
"b  c #003A87",
"n  c #212497",
"m  c #320CA7",
"M  c #3315AF",
"N  c #3217B2",
"B  c #331BB6",
"V  c #331FB9",
"C  c #1A2DA3",
"Z  c #0F39A4",
"A  c #3326BF",
"S  c #4721A3",
"D  c #4E21A6",
"F  c #3C6286",
"G  c #0247A4",
"H  c #53748B",
"J  c #53768D",
"K  c #3328C2",
"L  c #332CC6",
"P  c #332EC7",
"I  c #263FCC",
"U  c #2C39CD",
"Y  c #3430CB",
"T  c #3333CC",
"R  c #3234CD",
"E  c #3036CC",
"W  c #3335CF",
"Q  c #1D48CD",
"!  c #0A5BCC",
"~  c #0D58CC",
"^  c #1550CD",
"/  c #2244CD",
"(  c #0163D7",
")  c #0B6DD7",
"_  c #1872F9",
"`  c #267AED",
"'  c #688499",
"]  c #5290FC",
"[  c #7BA9FF",
"{  c gray51",
"}  c #848484",
"|  c #868686",
" . c #878786",
".. c gray53",
"X. c #8A8A89",
"o. c #89898A",
"O. c #8D8D8D",
"+. c #90908E",
"@. c #9C9B8F",
"#. c #909090",
"$. c #929292",
"%. c gray59",
"&. c gray61",
"*. c #8AB686",
"=. c #A9A692",
"-. c #AFAC98",
";. c #B4B19E",
":. c gray63",
">. c #A5A5A2",
",. c #AAAAA8",
"<. c #AFAFAB",
"1. c #AFAFAE",
"2. c #B0AFA4",
"3. c #B8B6A7",
"4. c #B2B2B2",
"5. c #B4B4B4",
"6. c #BAB9B0",
"7. c #BFBFB5",
"8. c #B9B9B9",
"9. c #BEBEBC",
"0. c #B1C3AF",
"q. c #C4C4B6",
"w. c #CACABC",
"e. c #9A9BCB",
"r. c #9C9ECD",
"t. c #A2A9CD",
"y. c #B8CFFD",
"u. c gray76",
"i. c #C5C5C3",
"p. c #C6C6C7",
"a. c gray78",
"s. c #CDCDC1",
"d. c #C8CFC7",
"f. c #C8C8C8",
"g. c #CACAC9",
"h. c #CBCBCB",
"j. c #CDCDCE",
"k. c #CFCFCE",
"l. c #D3D3C5",
"z. c #D8D7C5",
"x. c #D1D1CF",
"c. c #DBDACF",
"v. c #D4D4D0",
"b. c #D8D8D0",
"n. c #DCDCD2",
"m. c #DBDBDA",
"M. c gray87",
"N. c #E0E0D5",
"B. c #E2E2D5",
"V. c #E4E4D4",
"C. c #E6E7D6",
"Z. c #E5E5DB",
"A. c #E8E8D8",
"S. c #ECEBD9",
"D. c #DDD7EB",
"F. c gray89",
"G. c #E6E6E6",
"H. c #ECECE3",
"J. c #EFEFE4",
"K. c #E9E9E9",
"L. c #EEEEEE",
"P. c #F2F2E7",
"I. c #F4F5E7",
"U. c #F4F4EE",
"Y. c #F1F1F0",
"T. c #F7F6F1",
"R. c #F9F9F2",
"E. c #FCFCF1",
"W. c #F9F9F8",
"Q. c #FDFDFC",
"!. c #000000",
/* pixels */
"!.!.!.!.!.!.!.!.!.!.!.!.!.!.!.!.!. .| | | | | | | | | | | | | | | | | | | | | | | | | | | | | | | | | | | | | | | !.!.!.!.!.!.!.",
"!.!.!.!.!.!.!.!.!.!.!.!.!.!.!.!.} <.7.4.4.4.4.4.4.4.4.4.4.4.4.4.4.4.4.4.4.4.4.4.4.4.4.4.4.4.4.4.4.4.4.4.4.7.2.| r * !.!.!.!.!.!.",
"!.!.!.!.!.!.!.!.!.!.!.!.!.!.!.!.>.w.v.g.g.g.g.g.g.g.g.g.g.g.g.g.g.g.g.g.g.g.g.g.g.g.g.g.g.g.g.g.g.g.f.h.b.l.,.t 9 @ . !.!.!.!.!.",
"!.!.!.!.!.!.!.!.!.!.!.!.!.!.!.:.n.v.a.f.f.f.f.f.f.f.f.f.f.f.f.f.f.f.f.f.f.f.f.f.f.f.f.f.f.f.f.f.f.f.a.f.z.>.r 9 8 @ . !.!.!.!.!.",
"!.!.!.!.!.!.!.!.!.!.!.!.!.} <.K.T.U.Y.Y.Y.Y.Y.Y.Y.Y.Y.Y.Y.Y.Y.Y.Y.Y.Y.Y.Y.Y.Y.Y.Y.Y.Y.Y.Y.Y.Y.Y.Y.Y.H.z.&.t 9 9 8 @ . !.!.!.!.!.",
"!.!.!.!.!.!.!.!.!.!.!.!.} <.m.J.J.J.J.J.J.J.J.J.J.J.J.J.J.J.J.J.J.J.J.J.J.J.J.J.J.J.J.J.J.J.J.J.J.J.Z.u.y 9 8 9 8 @ . !.!.!.!.!.",
"!.!.!.!.!.!.!.!.!.!.!.!...k.R.C.C.A.S.S.S.S.S.S.S.S.S.S.S.S.S.S.S.S.S.S.S.S.S.S.S.S.S.S.S.S.S.S.C.C.c.4.e 7 9 9 8 @ . !.!.!.!.!.",
"!.!.!.!.!.!.!.!.!.!.!.!...j.T.C.C.b.d.d.d.d.d.d.d.d.d.d.d.d.d.d.d.d.d.d.d.d.d.d.d.d.d.d.d.d.d.l.C.S.c.5.e 8 9 9 8 @ . !.!.!.!.!.",
"!.!.!.!.!.!.!.!.!.!.!.!...j.T.A.C.' , , , , , , , , , , , , , , , , , , , , , , , , , , , , , F M.P.c.5.e 8 9 9 8 @ . !.!.!.!.!.",
"!.!.!.!.!.!.!.!.!.!.!.!...j.T.A.C.H > C G Z Z G C G G C C C C C C C C C z n n z C z z C z n n n D.I.c.5.e 8 9 9 8 @ . !.!.!.!.!.",
"!.!.!.!.!.!.!.!.!.!.!.!...j.T.A.C.H v Q ^ Q ^ ( Q ^ ^ / W Y U / W T W Y N K K M V N N V M B m D D.I.c.5.e 8 9 9 8 @ . !.!.!.!.!.",
"!.!.!.!.!.!.!.!.!.!.!.!...j.T.A.C.H b ~ I ^ ) ) ( Q Q ! I T / ~ U T T T T T R L m V V m A M x D D.I.c.5.e 8 9 9 8 @ . !.!.!.!.!.",
"!.!.!.!.!.!.!.!.!.!.!.!...j.T.A.C.H v I ! ( _ ] _ ( ^ I ! / R U R T T T T T T T L M M A m V N D D.I.c.5.e 8 9 9 8 @ . !.!.!.!.!.",
"!.!.!.!.!.!.!.!.!.!.!.!...j.T.A.C.H b ~ ( ` [ y.] ) ! ^ Q U T T T T T T T B B T R A N M V N c D D.I.c.5.e 8 9 9 8 @ . !.!.!.!.!.",
"!.!.!.!.!.!.!.!.!.!.!.!...j.T.A.C.H b ~ ( ` [ y.] ) ! ^ Q U T T T T T T T B B T T W K M V N c D D.I.c.5.e 8 9 9 8 @ . !.!.!.!.!.",
"!.!.!.!.!.!.!.!.!.!.!.!...j.T.A.C.H v I ! ( _ ] _ ( ^ I ! / R U R T T T T T T T T T Y A m V N D D.I.c.5.e 8 9 9 8 @ . !.!.!.!.!.",
"!.!.!.!.!.!.!.!.!.!.!.!...j.T.A.C.H b ~ I ^ ) ) ( Q Q ! I T / ~ U T T T T T T T T W V m A M x D D.I.c.5.e 8 9 9 8 @ . !.!.!.!.!.",
"!.!.!.!.!.!.!.!.!.!.!.!...j.T.A.C.H v Q ^ Q ^ ( Q ^ ^ / R Y U / E T T T T T T T W R L V M B m D D.I.c.5.e 8 9 9 8 @ . !.!.!.!.!.",
"!.!.!.!.!.!.!.!.!.!.!.!...j.T.A.C.H v E ^ Q Q ^ Q ^ Q Y Y T T Y T T T T T T R Y V L L V M B m D D.I.c.5.e 8 9 9 8 @ . !.!.!.!.!.",
"!.!.!.!.!.!.!.!.!.!.!.!...j.T.A.C.H v T T ^ ^ U ~ / Y R U E T T T T T T T T R L m A A m A M x D D.I.c.5.e 8 9 9 8 @ . !.!.!.!.!.",
"!.!.!.!.!.!.!.!.!.!.!.!...j.T.A.C.H v T T U E R U E Y U ~ / Y T T T T T T T T T L Y T A m V N D D.I.c.5.e 8 9 9 8 @ . !.!.!.!.!.",
"!.!.!.!.!.!.!.!.!.!.!.!...j.T.A.C.H b ^ U Y Y Y T T T E / U T T T T T T T T T T R W A M V N c D D.I.c.5.e 8 9 9 8 @ . !.!.!.!.!.",
"!.!.!.!.!.!.!.!.!.!.!.!...j.T.A.C.H b ^ U Y U / E T T T Y T T T T T T T R R T T T R A M V N c D D.I.c.5.e 8 9 9 8 @ . !.!.!.!.!.",
"!.!.!.!.!.!.!.!.!.!.!.!...j.T.A.C.H v T T Y / ~ U T T T T T T T T T T T L Y T T T T Y A m V N D D.I.c.5.e 8 9 9 8 @ . !.!.!.!.!.",
"!.!.!.!.!.!.!.!.!.!.!.!...j.T.A.C.H v T T T E U R T T T T T T T T T R L m V W T T R V m A M x D D.I.c.5.e 8 9 9 8 @ . !.!.!.!.!.",
"!.!.!.!.!.!.!.!.!.!.!.!...j.T.A.C.H v T T T T T T R A M P R R P M A W Y V L R T R V M V M B m D D.I.c.5.e 8 9 9 8 @ . !.!.!.!.!.",
"!.!.!.!.!.!.!.!.!.!.!.!...j.T.A.C.H v T T R R T T R A M P R R P M A W T W R R T V M N V M B m D D.I.c.5.e 8 9 9 8 @ . !.!.!.!.!.",
"!.!.!.!.!.!.!.!.!.!.!.!...j.T.A.C.H v T T P P T T T T T T T T T T P P T L Y T A m V V m A M x D D.I.c.5.e 8 9 9 8 @ . !.!.!.!.!.",
"!.!.!.!.!.!.!.!.!.!.!.!...j.T.A.C.H v T T M M T T T T T T T T T T M N L m A A m A M M A m V N D D.I.c.5.e 8 9 9 8 @ . !.!.!.!.!.",
"!.!.!.!.!.!.!.!.!.!.!.!...j.T.A.C.J > N Y K K Y N K K N Y V V Y N B B M V N N V M B B M V B c D D.I.c.5.e 8 9 9 8 @ . !.!.!.!.!.",
"!.!.!.!.!.!.!.!.!.!.!.!...j.T.A.C.J : c B V V B c M M c B m m B c M M c B m m B c M M c B m x D D.I.c.5.e 8 9 9 8 @ . !.!.!.!.!.",
"!.!.!.!.!.!.!.!.!.!.!.!...j.T.A.C.J : x x x x x x x x x x x x x x x x x x x x x x x x x x x x S D.I.c.5.e 8 9 9 8 @ . !.!.!.!.!.",
"!.!.!.!.!.!.!.!.!.!.!.!...j.T.A.C.J ; l l l l l l l l l l l l l l l l l l l l l l l l l l l l n D.I.c.5.e 8 9 9 8 @ . !.!.!.!.!.",
"!.!.!.!.!.!.!.!.!.!.!.!...j.T.C.C.u.t.r.r.r.r.r.r.r.r.r.r.r.r.r.r.r.r.r.r.r.r.r.r.r.r.r.r.r.e.t.L.P.c.5.e 8 9 9 q @ X . . !.!.!.",
"!.!.!.!.!.!.!.!.!.!.!.!...j.T.A.A.P.E.E.E.E.E.E.E.E.E.E.E.E.E.E.E.E.E.E.E.E.E.E.E.E.E.E.E.E.E.R.U.H.c.5.e 8 q 7 < % @ @ & @ !.!.",
"!.!.!.!.!.!.!.!.!.!.!.!...j.U.B.B.B.B.B.B.B.B.B.B.B.B.B.B.B.B.B.B.B.B.B.B.B.B.B.B.B.B.B.B.B.B.B.B.V.b.5.e 8 7 3 O < q e O.&   !.",
"!.!.!.!.!.!.!.!.!.!.!.!...j.K.i.i.i.i.i.i.i.i.i.i.i.i.i.i.i.i.i.i.i.i.i.i.i.i.i.i.i.i.i.i.i.i.i.i.i.i.4.e 9 < O 3 7 t O.e @   !.",
"!.!.!.!.!.!.!.!.!.!.!.!...%.%.X.o.X.X.X.X.X.X.X.X.X.X.X.X.X.X.X.X.X.X.X.X.X.X.X.X.X.X.X.X.X.X.X.X.o.X.| w = @ < 7 y | t 6 @   !.",
"!.!.!.!.!.!.!.!.!.!.!.!.} 2 = = = = = = = = = = = = = = = = = = = = = = = = = = = = = = = = = = = = = = - % = q t | t 6 5 @   !.",
"!.!.!.!.!.!.!.!.!.!.!.!.!.. o o o o o o o o o o o o o o o o o o o o o o o o o o o o o o o o o o o o o o o < q e O.r 6 5 7 @   !.",
"!.!.!.!.!.!.!.!.!.!.!.0 0 6 5 5 5 5 5 5 5 5 5 5 5 5 5 5 5 5 5 5 5 5 5 5 5 5 5 5 5 5 5 5 5 5 5 5 5 5 5 5 5 6 t O.e 6 5 7 5 @   !.",
"!.!.!.!.!.!.!.!.!.!.#.u.u.i.a.a.a.a.a.a.a.a.a.a.a.a.a.a.a.a.a.a.a.a.a.a.a.a.a.a.a.a.a.a.a.a.a.a.a.f.f.a.f.g.,.t 9 7 6 6 6 @   !.",
"!.!.!.!.!.!.!.!.!.u 1.Q.R.Y.Y.T.L.U.U.L.T.Y.Y.T.L.U.U.L.T.Y.Y.T.L.L.L.L.T.Y.K.K.L.K.K.L.K.L.L.K.L.Z.Z.L.B.Z.4.8 9 7 6 6 6 @   !.",
"!.!.!.!.!.!.!.!.!.u 1.T.A.v.b.N.v.n.n.v.N.b.b.N.v.n.n.v.N.v.v.N.k.j.j.k.N.v.a.u.g.i.i.g.u.f.f.u.a.3.3.i.;.-.j 9 8 5 6 7 5 @   !.",
"!.!.!.!.!.!.!.!.!.u 1.Y.v.n.n.x.N.v.b.N.x.n.n.x.N.b.b.N.x.j.j.k.h.n.n.h.k.i.i.g.u.a.a.u.g.i.i.i.;.7.7.;.6.;.h 8 5 6 6 5 7 @   !.",
"!.!.!.!.!.!.!.!.!.u 1.U.B.k f f a 0.n.b.n.b.b.n.b.n.n.v.j.b.b.h.h.v.v.h.i.a.8.>.:.>.>.:.>.:.:.:.@.&.,.6.3.;.h 6 6 6 6 6 5 @   !.",
"!.!.!.!.!.!.!.!.!.u 1.T.B.d p p i *.N.b.n.b.b.n.b.n.n.v.j.b.b.h.h.h.g.a.i.h.&.3 3 3 3 3 3 3 3 3 3 7 y +.| g e 4 6 5 5 5 4 % # !.",
"!.!.!.!.!.!.!.!.!.$.8.L.k.s i i i *.b.N.k.n.n.k.N.v.v.n.j.g.g.g.g.h.a.u.g.g.{ O O O O O O O O O O 3 w w w w q 8 8 6 7 w w 9 5 1 ",
"!.!.!.!.!.!.!.!.#.p.F.x.i.0.0.0.0.i.k.k.j.k.k.j.k.j.g.i.u.u.u.u.u.u.u.u.u.u.2.j j j j j j j g t :.j.F.F.F.F.x.4.4.+.:.F.F.g.e o ",
"!.!.!.!.!.!.!.$.p.Z.S.n.N.N.N.N.N.Z.B.n.n.n.N.Z.n.n.c.c.N.n.b.b.c.n.n.b.b.b.c.c.z.l.z.z.z.2.&.8.G.Q.Q.Q.Q.K.v.u.>.9.G.Q.Q.F.t   ",
"!.!.!.!.!.!.$.8.H.P.H.l.@.q.J.J.N.>.-.A.J.A.7.@.c.J.H.l.@.q.J.J.N.>.-.A.J.A.7.@.c.P.H.b.q.%.O.1.g.j.h.h.h.4.>.:.| 4.x.h.h.9.q   ",
"!.!.!.!.!.$.8.U.H.P.m.%.& @.U.K.1.1 8 S.Y.a.w = s.T.m.%.& @.U.K.1.1 8 S.Y.a.w = s.U.M.5.&.%.%.%.%.%.%.%.%.%.%.%.%.%.%.%.+.X.4   ",
"!.!.!.!.#.p.H.H.U.M.{ & 2.H.K.1.& g N.Y.h.4 4 s.Y.M.{ & 2.H.K.1.& g N.Y.h.4 4 s.Y.m.1.&.m.K.K.K.K.K.K.K.K.K.K.K.K.K.K.F.9.o.-   ",
"!.!.!.$.p.Z.P.P.M.e 4 @.H.L.&.1 g v.T.a.4 8 6.T.M.e 4 @.H.L.&.1 g v.T.a.4 8 6.U.M.1.,.v.T.Q.Q.Q.W.Q.W.Q.W.Q.W.Q.Q.T.K.v.6.| =   ",
"!.!.$.8.H.P.H.v.{ 4 X.P.G.&.6 8 N.Y.8.w 4 6.R.v.{ 4 X.P.G.&.6 8 N.Y.8.w 4 6.R.M.>.%.9.Q.W.W.W.W.W.W.W.W.W.W.W.W.Y.Z.s.3.@.y -   ",
"!.$.8.U.A.P.K.1.& @.I.Y.h.4 7 C.U.M.{ = w.T.K.1.& @.I.Y.h.4 7 C.U.M.{ = w.T.M.,.r :.m.W.W.W.W.W.T.W.W.W.W.W.W.U.Z.g.3.=.X.r -   ",
"..p.H.A.C.A.A.n.w.c.S.A.V.s.l.A.A.V.z.s.V.S.A.n.w.c.S.A.V.s.l.A.A.V.z.s.V.J.7.r y 7.H.W.W.T.W.W.W.W.W.W.W.W.Y.Z.g.3.@.X.| r -   ",
"| j.Q.U.U.U.U.U.R.T.U.U.U.R.R.U.U.U.T.R.U.U.U.U.R.T.U.U.U.R.R.U.U.U.T.R.U.R.9.q { 5.N.P.W.U.J.J.J.J.J.J.J.M.v.s.3.@.O.| t - + !.",
"| k.W.G.G.G.G.G.G.G.G.G.G.G.G.G.G.G.G.G.G.G.G.G.G.G.G.G.G.G.G.G.G.G.G.G.G.K.5.q { >.q.l.F.n.b.b.b.b.b.b.l.7.1.,.@.O.{ r 1 + !.!.",
"| i.m.8.8.8.8.8.8.8.8.8.8.8.8.8.8.8.8.8.8.8.8.8.8.8.8.8.8.8.8.8.8.8.8.8.8.9.&.w y @.=.=.6.9.9.9.9.9.9.6.=.=.@.{ { { r 3 X !.!.!.",
"| +.+.O.O.O.O.O.O.O.O.O.O.O.O.O.O.O.O.O.O.O.O.O.O.O.O.O.O.O.O.O.O.O.O.O.O.O.o.y w y X.+.=.-.-.-.-.-.-.=.+.X.y q q w 1 X !.!.!.!.",
"!.* % % % % % % % % % % % % % % % % % % % % % % % % % % % % % % % % % % % % % % @ 5 t r g g g g g g g g r t 5 @ @ @ + !.!.!.!.!.",
"!.!..                                                                             $ - - - - - - - - - - - - $     . !.!.!.!.!.!.",
"!.!.!.!.!.!.!.!.!.!.!.!.!.!.!.!.!.!.!.!.!.!.!.!.!.!.!.!.!.!.!.!.!.!.!.!.!.!.!.!.!..                         . !.!.!.!.!.!.!.!.!."
};
