/* XPM */
static char *result[] = {
/* columns rows colors chars-per-pixel */
"64 64 86 1 ",
"  c black",
". c #666633",
"X c #868686",
"o c #9999CC",
"O c #996633",
"+ c #E7E7D6",
"@ c #EFD6C6",
"# c #CCCCFF",
"$ c #333366",
"% c #FFFFCC",
"& c #999966",
"* c #666699",
"= c #393939",
"- c #99CCFF",
"; c black",
": c #B2B2B2",
"> c #ADA990",
", c #D7D7D7",
"< c #6699CC",
"1 c #6666CC",
"2 c #663399",
"3 c #3333CC",
"4 c #330099",
"5 c #000033",
"6 c #040404",
"7 c #3366CC",
"8 c #6699FF",
"9 c #CCFFFF",
"0 c #66CCFF",
"q c #66FFFF",
"w c #33FFFF",
"e c cyan",
"r c #00FFCC",
"t c #33CCFF",
"y c #00CCFF",
"u c #00CCCC",
"i c #3399FF",
"p c #9999FF",
"a c #333399",
"s c #CCECFF",
"d c #99FFFF",
"f c #0099CC",
"g c #999900",
"h c gray20",
"j c #0099FF",
"k c #777777",
"l c #33CCCC",
"z c #66CCCC",
"x c #3399CC",
"c c gray26",
"v c #999933",
"b c #663300",
"n c #333300",
"m c gray3",
"M c #161616",
"N c #EAEAEA",
"B c gray30",
"V c #0C0C0C",
"C c #663333",
"Z c #222222",
"A c #CC9933",
"S c #993333",
"D c gray59",
"F c #CC9999",
"G c #FFCC99",
"H c #808000",
"J c gray60",
"K c gray16",
"L c gray40",
"P c #C0C0C0",
"I c #F1F1F1",
"U c white",
"Y c #FFFBF0",
"T c #F8F8F8",
"R c #555555",
"E c #111111",
"W c #996699",
"Q c #CBCBCB",
"! c #A0A0A4",
"~ c gray80",
"^ c #663366",
"/ c gray11",
"( c #5F5F5F",
") c #DDDDDD",
"_ c #996666",
"` c #666600",
/* pixels */
"Q,,PXk!oooooooooooooooooooooooooooooooooooooooook__XQ,,,,,,,,~RR",
"s9s:D:P~########################################P::!QP~999999s==",
"s9!k:,++)))########################################PoJDJJJ!!!!==",
"s9X*#N%%+@@)##############))#))#+)))#))#+))+#))#))))#P!D*kkkkk==",
"s9Xk-#N%%%%+++%%%%%%+%%+%%%%+%%+%%%%)+++%++%+++)+)+++,~PD!:!kk==",
"s9XLo-#N+%%%%%%++@@)~@@~+@@+~@@~+@@+Q@@~+~~+Q@@Q,~~+++)#D:::kk==",
"s9XLo--#)+%%%+)~P::P!!>D!JJ!D>>D!!J!DJ>J:J!:D>>D!J!PQ))#XJ::kk==",
"s9XkoPP-#)))%N-o<1<<<<****<<<<<********************1p#)#XD::kk==",
"s9XL!::P-###%I-<<800---q-0qqqwww-zl00tttytlui88ii77x0-##XDLkkk==",
"s9X(D:P-P-##%%,o00qqqqqqqddqqqwwqwwq-0000008l88lii7x0s)#XD=Bkk==",
"s9X(D::Q:P##%%)o0qqdqqqqqddddqqdqwww0qq0-008lttliiixqs)#XRkkkk==",
"s9X(D>>:::Q#%Iso0qdsqddqddqdsddsqqqww00q0-0t0lliiiilqs##X=kkkk==",
"s9X(D::::--#%+)o0qqddqqdddddddqdqqwqwwwww000008tiiilqs)#X(kkkk==",
"s9X(D!>>:P~#%I,o0qdddddd9dddddqqqddqwqqw0q000000tiilqs##X(kkkk==",
"s9X(D!!>::Q#%I,o0qdddddd99ddddqqqddqwqqq0q0000t8lixlqs##X(kkkk==",
")9X(D!o:>:P#%+,o0qqqddd9999ddqqqqqqwwwwww0-0000tixxzds)#X(kkkk==",
"s9X(J!!!>>P#%Nso0qqqqddd9ddddddqqqqww0qq-qq-00z-tiizds##X(kkkk==",
"s9X(D!!!!:Q#%%,o0ddqdddddddqddqqdqqqwqqqqq00l00ziiizds)#X(kkkk==",
"s9X(D!!!!:P,%%,o0ddqdddddddqdqqqdqqqwwwwqq000000iixzds)#X(kkkk==",
"s9X(D!!!!>PQ%Iso0qqqqddddddddqqqqqqwqwwq-qq-0ttttxxzds##X(kkkk==",
"99X.&!!!o!P#%%,o0qqqqqdsdddqqddwqqqq-qq-w00ttluliiizds)#D!::kk==",
"99XRX!!!!!P,%N,o0qqqddddqddqqqqqqqqwqwwq0wtttlz0lxxzds##D:::kk==",
"s9X(D!!!!!PQ%N,o00qqddqqqqqdqqqqqqqwqwwq0wt0tt08lxxzds##XJ::kk==",
"s9k(D!JDo!P#%%,o0-0wwqqwqqd9qqqwq-0w-qq-w00ttt0liiiosN)#XD::kk==",
"s9X(DJJ!!!:Q%Nso0qqwwwqqqqqdqqqwwqwwq00q0--0tll0lxxoss##XD(Lkk==",
"s9XRXDJJ!!:,%%)o00qw0qqwwwwwwwq0wqqw0qq0w000tttlxxxoss)#XD=Bkk==",
"s9XRXDJJ!!:,%%,o00qq0qweeewqwwq0qqqw0q00w00ttttlxixoss)#XBkkkk==",
"s9k(DDJ!!!:Q%Nsp0qq0qwwwwwqqwwwq-qq0q0000000llliixxoss##X=kkkk==",
"s9kB&DJDoJ:#%+)p000q-qw0wt0q0ww0w00w0wwt000pzi8tjjiosN)#X(kkkk==",
"s9XRXDDJJJ:Q%Isptt00qqww0ww0wwww00000000llzz88iiijxoss##X(kkkk==",
"s9X(XDDJJJ:~%Ispttt0wttw0tt0wttw00000000llll88iiijxoss##X(kkkk==",
"s9kBkD!DoJ:#%%)pittttttttttttlltltt0tlll8ll8liiiijiosN)#X(kkkk==",
"s9XR*XD!&JoQ%I-88iitittit88t8tt8tiiti88<p<xixjjfjfxoss##X(kkkk==",
"s9XLa*XD!J:~%%)088<<<<<<<<<<<<<<<<<<<1111111111111<oss##X(kkkk==",
"s9Jk*aLkoX:,%%)---oooooooooooooooooooooooooooooooooP9s)#X(kkkk==",
"s9JkkRBL*XJP%Ns#+N)+s))s+))+s))s+))+N))N+))%s))s+))+9s#Pk(kkkk==",
"s9JkkkLLX*X>~,#)))))+),+))))+,)))))))))))))#)),)))))+)PJX:::kk==",
"s9Jkkkkk!J*L!:~,~,,~,~~,~,,~,~~,~,,~,~~,~,,~,~~,~,,~,P!.!Q::kk==",
"P~!oXk!:Dk$=RX!oJooJo!!oDooDo!!oJooJ!!!!DooDo!!oJooJo!J!:P::kk==",
"k!o#:WLLLB=MZcRBcRRB$BB$BBRRRRRRRRRRRRRRB$$cBBcBc$RBRRJ~::::kk==",
"B!#N#oXL**RMKBRKKccC/VE/$=$*=BB=*$$*cBBh$KEEMK=CKVE/ZRXP::BRkk==",
"c*o###oD_**(BB$(k&kk.Chh==c$cBcc$Bc$Bcc=ccCCBRLOhZ=R$(LX!:=ckk==",
"c*1o###oDk**(Bc(k&XWWL(*kkLkkkkkk&XkkkL_kkXW*k_Oc$(L(LLLBRkkkk==",
"cLX!p###oDk*_(Cnh(kX1WW1!!!>oFFo:GG:o:>Fo!!11XOCc**$*__*(Bkkkk==",
"c(k*!o###o!D**L(cBR(2*111D>:~#QP~,,~QP#PJDWW(BCc****_XXX&X*kkk==",
"c(kkXoo###P:o!!oXkk*LL***kkX!!!J!!!!!!!JkkkLBcBRkDDDD!::::Dkkk==",
"c(kkkXo:+N#P#~Q#P::o:!JJ!!JJ!>>J!!>>!!!!!>>>XDJJ!:P:P##,#~:LLk==",
"c(k*LkX:+N)####,##,,N),#)),,,,,,)N++)))))++@,~,,#,,)N##)N)PLLk==",
"c(kLkkkJ#))##QP::o::P::o::::::::::::P:::::::::::::::P:::,#oLLk==",
"=RLkkkk!+,PDDXk*LLLL*LL*LLLL*Lk*LL***Lk*kkk*kkkkLkkLkkk*:#oLLk==",
"!kR*kkk!),:BLkXXkkkk*Xk(**kkDX_DXXDXXXXXDXk*kkLkLLLLRkk$kJ!LLk==",
"s:R(*kkD#,:=LD:!J:!opoo*ooo!P:FGPPP:::o::!D*DXXXk*XXLXXRB(LRLk==",
"sskc(*k>@,!=LDDX!,~o_PQW:~,::QQP)N)+)PPQ:FFJWDX*LkX***XDRhK(Lk==",
"s9X(BRLD,,:=Loo!!::!X:P!:PP::PQQ~,,,,@PP:PP!!JDDXooJ*DDXk(=(Lk==",
"s9Dk(B(X,,:h(1o:oW!:D!:P:o:G:PPP:~,~,@@:PQP!:>DJJooJ*DD*XXLLLk==",
"s9JkkRLk:P!hRLD#DDP~>!P,po:~!P:>G)s,)+@P,Q:!!>&X!Xk*<*k*XJDkLk==",
"s9JkQQDLXX(KB(k!JXJ:D:::o!>::::P:,)Q~QPG:QQ:P:JDD*D!XXoQXXXkLkc=",
"s9Jk~):DDDBhBcRkJ!!:P:!WP:!:~Q::P,)#,PP,:~~:PPFJXDDXoJJo**DX**Rc",
"s9Jk::::(ckkR==LD:::Q:!!::!:,@::P~,,,PP,:~~PPP:o!oDXooX*****D**B",
"s9Jk::::(ckkLR=cko!DD!:oo:>o:::::~~P~QP@:~@@,PoooWXDpoWXkk*XDXLB",
"s9JkBccckkkkkLR=B*!P>Po1pP:::::oPPQ,),,,Q~~~#Po:!D&_*DX*X&D!X*LB",
"s9JkB===kkkkkkLRcR!~Q~~o#,QQ#QQ#,Q,,##,,###p::!X&Xk*LkkLkLL*((RB",
"s9kc===========hhcX!!::!!::!!::!::::!!::o!o1XXXLLLL*RRRRRBBRBBBB",
"s9k=============hK=ccBBccBBccBBBRRR((((($(R$RR$BBBBBB$$B$BB$B$$B"
};
