/* XPM */
static char *result[] = {
/* columns rows colors chars-per-pixel */
"64 64 64 1 ",
"  c #373C3E",
". c #373D40",
"X c #393E41",
"o c #3C4144",
"O c #3F4548",
"+ c #414749",
"@ c #444B4D",
"# c #474E50",
"$ c #484F51",
"% c #4A5254",
"& c #4E5658",
"* c #535658",
"= c #535B5D",
"- c #575E60",
"; c #596264",
": c #5D6668",
"> c #636C6E",
", c #656E71",
"< c #677073",
"1 c #6A7476",
"2 c #6C7779",
"3 c #6E787A",
"4 c #727475",
"5 c #727D7E",
"6 c #737E80",
"7 c #758183",
"8 c #798486",
"9 c #7B8789",
"0 c #7C898B",
"q c #7F8C90",
"w c #808A8C",
"e c #919FA2",
"r c #91A0A2",
"t c #9EACAD",
"y c #9CADB0",
"u c #A1AFB1",
"i c #A5B4B6",
"p c #A7B6B8",
"a c #A8B7BA",
"s c #ACBCBE",
"d c #AEBDC1",
"f c #B0BFC3",
"g c #AFC0C3",
"h c #AFC4C9",
"j c #B2C2C6",
"k c #B4C6C9",
"l c #B5CACE",
"z c #B7CED2",
"x c #B8CFD3",
"c c #BAD0D5",
"v c #BED5DA",
"b c #C0D6DC",
"n c #C2DADE",
"m c #C5DDE2",
"M c #C9DFE4",
"N c #C7E0E5",
"B c #C9E1E6",
"V c #CBE3E8",
"C c #D1E8ED",
"Z c #D6EEF2",
"A c #D8EFF4",
"S c #D9F0F5",
"D c #DEF7FC",
"F c #E1FAFF",
/* pixels */
"cMMMMMMMMMBMMMMMBBNMMMBNNNNNMMMMMMMMMMMMMMMMMMMMMMMMMMMMMMMMMv&5",
"CFFFFFFFFFFFFFFFFDFFFFFDFFFFFFFFFFFFFFFFFFFFFFFFFFFFFFFFFFFFFZ 4",
"CFdyyyyyyyyyyytyyyyttttyyuttyyyyyyyyytyyyyyyyyyyyyyyyyyyyyyyurX4",
"CFe66666656666666666667665666666666666666566666666666666656674X4",
"CFr66666hzii966566666666lxit756666666667zzut656666666660zlut73X4",
"CFr66665vBjs056666666665mBjs866666666667BBss666666666660BNsa53X4",
"CFr666hckkfs0666666666lxkkdd7666666667xxkkss6666666660xzkkda53X4",
"CFr666vBjsss0666666666NBjsss7666666667BBddss6666666660VMdssa53X4",
"CFr6hclkfs6<56666666lxkkss2,56666667xxkkds,<66666650czkksp<<63X4",
"CFr5vBjsds-X36666666mBgsss#X56666666BBssssoo66666659VBssdi @63X4",
"CDr6dkds6>1156666666hkss2,1156666667kkss,,1166666659kjsa,<1163X4",
"CFr6isds;X3566666665psdd$X5666666666ssdsoo6666666659dddp.+5663X4",
"AFr7<>>>115666666666,>>>225566666666>>>>116666666665>>>>116663X4",
"AFr5#oXX365666666666+.. 366666666665ooXo566666666673XXo+666663X4",
"CFr61111566666666666222256666666666611116666666675751111666663X4",
"VDr66666666666666665556666666666666656666666666655756666666663X4",
"CFr66666666666666666666666666666666666666666666656666666666663X4",
"CFr66666666666666666666666666666666666666666666666666666666663X4",
"CFr66666666666666666666666666666666666666666666666666655666653X4",
"CFr66666656666666666666665666666666666666666666666666577656663X4",
"DFr66666lvsi066666666666cvpi766666666667vvii666666666679vcii53 4",
"FDr66666bBjs066666666666mBdd766666666667BBsa666666666670BNaa73X4",
"SFr667lvkjsd0666666666cvkjdd8666666667vvjjss6666666660vcjjda53X4",
"SFr666vBjdss0666666666nBdssd7666666657BBdsss6666666660VBsssa53X4",
"CFr6lvkjdd1;36666666cvkjdd>-56666667vvjjss;;76666650vvjhda;:53X4",
"CFr6vBksds-X26666666mNgsss#X56666667BBdssaoo66666669BNsssio+53X4",
"CFr6ahds1;1256666666gjds>-2356666667jjss;;2266666669jjsa;;3353X4",
"CFr6idds;X2666666666asdd#.5666666666ssssoo6666666659dsdi +7573X4",
"CFr6:---126666666666;---236666666675;=;=336666666665-=;;236653X4",
"CFr6#..o266666666666O.XX566666666656o .o666666666663.o.O666653X4",
"CFr63333666666666666333366666666666623336666666666662333666674X4",
"CFr66666666666666666666666666656666576676666666666666676666573X4",
"CFr66666666666666666666666666666666666666666666666666666666663o1",
"CDr66666666666666666666666666666666666666666666666666666666662 4",
"CFr66666667566666666666666666666666665666666666666666666666773X4",
"CFr66666555666666666666636666666666667565666666666666666663774X4",
"CFr76666cmsa956666666666nmaa776666666667mnai666666666660nnai53.4",
"CFr56666nBjs066666666666MBgd766666666667MMss66666666666qVNsa53o4",
"CFr566cmjjdd0666666666vmhgsd8666666667mmdhss6666666660mvggsa53.4",
"CFr766vVjsss0666666655mBdsds7666666666BBddss6666666650VBsssa53X4",
"ZFr6cnkjds:%36666666vmhsss-$66666666nmjjsa&%66666650mnffsp#=63X4",
"SFr5bBjsdd;.36666665mVfsds#.36666667BBssssoo66666659VMssdiX+63X4",
"VFr5ijss:%1566666666sjss-#3366666666gdss%%5466666659fffi#&5563X4",
"VFr7psds;o4666666666asds%X5666666666ssssoo6766666659sssaX+6563X4",
"CFr6*@@$156666666666%@@#366666666666##@#356666666665#@#%556663X4",
"CFr6%  o366656666666+oo 666666666666o.Xo666666666655...+666663X4",
"CFr65555666675666666555566666666666635556666666666565555656653X4",
"CFr65575666666666666565566666666666676666666666666666666666663X4",
"FFr56666666666666666666666666666666666666666666666666666666662o1",
"FFr66666666666666666666666666666666666666666666666666666666762X4",
"SFr66666656566666666666666666666666666666666666666666666666353X4",
"AFr66666776766666666666667666666666666666666666666666666776773X4",
"CFr66666vBjs966666666666mMds666666666667MMda666666666660Bnsp53o4",
"CFr66667vBjs066666666666mBdd766666666678VMss66666666667qBNsa54o4",
"CFr666vBjdss0665666666mMhddd7666666667Bmdsds6666666660Vmsgsa53.4",
"CFr577vBjsss0666666668mMddss7666666677BMdsss666666667wVMsssa53.4",
"CFr6vBjdsd;o46666665mMfddd$o56666667BBddss++56666659BMssspo@63o4",
"CFr6vBjsss-o37666665mMfssd$X56666667MBddsaX+66666660VMsssio@64X4",
"CFe6isss;o1666666666sssd$X5556666666ddsaX+5666666668ssspo@5663X4",
"CFe6usss;o3666666666psas%o5666666666sada++6666666658ssspX+7563X4",
"CFr6#XXo366566666666@XXX566656666666ooXo566665656665oXX+666563.4",
"CFe5#XXX155555555555+XXX365555555556...o555555555553XXX+555552o4",
"CF7XXXXXXXXXXXXXXXXXXXXXXX.XXXXXXXXXXXXXXXXXXXXXXXXXXXXXXXXXX .4",
"CF0************************************************************7"
};
