/* XPM */
static char *_31a65c61ba049c4f55f3deb9abda3faZu0rgsk1ZbLVUrWB[] = {
/* columns rows colors chars-per-pixel */
"64 64 128 2 ",
"   c #D4D4D4",
".  c #C8C8C8",
"X  c #C8C8C8",
"o  c #C0C0C0",
"O  c #BCBCBC",
"+  c #BBBBBB",
"@  c #B9B9B9",
"#  c #B4B4B4",
"$  c #B4B4B4",
"%  c #B3B3B3",
"&  c #AFAFAF",
"*  c #AEAEAE",
"=  c #AAAAAA",
"-  c #AAAAAA",
";  c #A9A9A9",
":  c #A8A8A8",
">  c #A5A5A5",
",  c #A5A5A5",
"<  c #A4A4A4",
"1  c #A3A3A3",
"2  c #A2A2A2",
"3  c #A0A0A0",
"4  c #A0A0A0",
"5  c #9F9F9F",
"6  c #9E9E9E",
"7  c #9D9D9D",
"8  c #9B9B9B",
"9  c #9B9B9B",
"0  c #9A9A9A",
"q  c #999999",
"w  c #989898",
"e  c #979797",
"r  c #959595",
"t  c #959595",
"y  c #939393",
"u  c #939393",
"i  c #929292",
"p  c #919191",
"a  c #8F8F8F",
"s  c #8E8E8E",
"d  c #8D8D8D",
"f  c #8C8C8C",
"g  c #8B8B8B",
"h  c #8A8A8A",
"j  c #898989",
"k  c #888888",
"l  c #878787",
"z  c #868686",
"x  c #858585",
"c  c #848484",
"v  c #838383",
"b  c #828282",
"n  c #7E7E7E",
"m  c #7F7F7F",
"M  c #7F7F7F",
"N  c #7E7E7E",
"B  c gray51",
"V  c #838383",
"C  c #848484",
"Z  c gray52",
"A  c #868686",
"S  c gray53",
"D  c #888888",
"F  c #898989",
"G  c gray54",
"H  c #8B8B8B",
"J  c gray55",
"K  c #8D8D8D",
"L  c #8E8E8E",
"P  c gray56",
"I  c #909090",
"U  c gray57",
"Y  c #929292",
"T  c #939393",
"R  c gray58",
"E  c #959595",
"W  c gray59",
"Q  c #979797",
"!  c #989898",
"~  c gray60",
"^  c #9A9A9A",
"/  c #9B9B9B",
"(  c gray61",
")  c #9D9D9D",
"_  c gray62",
"`  c #9F9F9F",
"'  c #A0A0A0",
"]  c gray63",
"[  c #A2A2A2",
"{  c gray64",
"}  c #A5A5A5",
"|  c #A7A7A7",
" . c gray66",
".. c #A9A9A9",
"X. c #AAAAAA",
"o. c gray67",
"O. c #ACACAC",
"+. c gray68",
"@. c #AEAEAE",
"#. c #AFAFAF",
"$. c gray69",
"%. c #B1B1B1",
"&. c #B2B1B2",
"*. c gray70",
"=. c #B4B4B4",
"-. c gray71",
";. c #B6B6B6",
":. c #B7B7B7",
">. c gray72",
",. c #B9B9B9",
"<. c gray73",
"1. c #BBBBBB",
"2. c #BCBCBC",
"3. c gray74",
"4. c gray",
"5. c gray75",
"6. c #C0C0C0",
"7. c #C1C1C1",
"8. c gray76",
"9. c #C3C3C3",
"0. c gray77",
"q. c #C6C6C6",
"w. c gray78",
"e. c #C8C8C8",
"r. c gray79",
"t. c #CACACA",
"y. c gray80",
"u. c gray82",
/* pixels */
"r y.w.3.%...} } } } @.%.-.-.9.w.a 3.<.@.} ..-.3.<.@.} ......t.@.L ..} } %.@...} { %...{ { %.@.^ L @...} } } { %.@.} } { ..-.%.^ ",
"R ..} { { } } } } } } %...{ } ( b { { } { { { { { } } } } { } { ^ } } { { { } T T } { { { } } T ....{ { { { { { { { { } } { { } ",
"L } } } } } } } } } } { { { { } G } } } } } { } } { } } } } { { ( } { } { { } ( L } { { { { } ( L } { { { { } { { { { { { { { @.",
"R } } } { } { } } } } } { { } { M ..} } } } } { { { { } } } } ( T } { } { { } { R } { { } } { { ^ } { { { { { { { { { { { { { } ",
"R } } { { { { } } } } } { { } { L } } { { } } { { { } } } { } ( L } { { { { } { ( } { } { ( } { ^ } { { { { { { } { { { { { { } ",
"T ..} { } { { } } } } { { { { } { } } { { { { { { { { } { { } ( L } { { { { { { { { { } ( ( } { { } { { { { { { { { { { { { { } ",
"T } { { { { { } } } { { { { } M L } { { { { { { { { { { { { } ( G } { } } { { { } } } { ....} { ( } { { { { { } } { { { { { { } ",
"T ....} { { { } } { { } } { { { T { { } } { { { { { { } { { } ( G ..{ { { } } ( A { { { { ^ R A T } { { { { { { } { { { { { } } ",
"T ..T G { } } } { { { } } } } ..G { { } } } } } { { { { { { } { ^ } { { } { { { ^ } } ..} } ..^ R } { { { { { { { { { { { { ..T ",
"L } } } } } } { { { { { } } } { A } { } } } { { { { } } } { { } { } { { } } ^ M R } } } { } } { { } { } { } } { { { { { { } ^ h ",
"A ......} } } { } { } { { } } { G } } { { { } } } } } } } { ^ R ( } { { { } @.{ R } } { } } } { ( } } { } { { } { } { { { } L L ",
"A ..} } } } } } { { } } } } ..( b } } { { { { } } } } } } ..{ ^ ^ } { } { } { { { } } { { { } { ( } } { } } } { } { { } } ^ ....",
"M ..} } } } { { { } } } } } } ( M { } { { } } { } } } } } ..( L ^ } { { { } { { { } } { { { } { { } } { { { { { { } { { { } ..( ",
"a ..} } } } } { { } R ( } { ..T x } { { } { { { { { } ....( ..M R } { { { } } { { } } { { { } { { } } } } { } { { } { { { } } ( ",
"5 } ......} } { } R x { } ..} q , ..{ { } } ..} { { } T x h b A R ..} } } { } ( T ..{ } } { ..R R } } { { { { } } { { { { { } { ",
". , 5 p b T { { } T a ^ { G p % @ x ^ ( x p M ^ ( ^ b , 5 1 ; o a L T { } L G a 5 G L { { { ^ , G ..} { } } { { } { { { { { { } ",
"x 3.%.%.%.} } } } } { } } ( { { { ( { } ( R ( } } %.} } -.} { b r @.<.-.%...{ ( ( ( ^ { @.3.<.A L ..} { } } } { { { { { { { { } ",
"G @.....{ { { { { { } { { } } } } } } } { ( } } } { { { { } { M 5 <.<.} { } } } ..@.@.} } { } ( T } { { } { { { { { { { { { { } ",
"R } { { { { { { } { { { { { { { { { } { } } { { { { { { { } ..M ; @...{ } { } } } } } } } } } T R } { { { { { { { { { { } { { } ",
"R } { { { { { { { { { } { { { } } { { { } { { { } { { { { } } G 1 ( } } } } { } } } } } } } } ^ R } { { } } { { { { } } { { { } ",
"R } { { { { { { { { { { { { { { { { { { } { { { { } { { { { } } A { } } } } { { { { { } } } ..( L } { { { { { { { { { { { { } { ",
"x } } { { { { { { } { { { { { { { { } } { { { } } { { { { { } { ^ } } } } } { { { { { } } } } { M ..{ { { { { { { { { { { { { x ",
"x ..{ { } { { { { { { { { { { { { { { { { { } { { { { { { } } R R } } } } } } { { { { } } } } ( h ( } { { } } { } { { { { } { h ",
"G } { { } } { { { { { { { { { { { { { } { } { { { { { { { { } { ^ } } } { } } { { } { } } } } ( a ( { { } } } } } } } { } } } r ",
"L } { { { { { { { { { { { { { { { { { { { { { { { { } { { { } ( R ..} } } { { } } { { } { { } ( 1 ^ R ( } { { { { { } { { } R b ",
"R } { { { { { { { { { { { { { { } } { { { { { { { { { { { { } ^ b } } } } { { { { { { } { { } { M L { M T } } } { { } { { } { { ",
"R } { { { } } } { { { { { { { { { { { { { { { { { { { { { { } { x { } } { { } { { } { { { { ..L ^ ..@.^ R } } } } } { { } { ..( ",
"R } { { { { } { { { { { { { { { { { { } { { { { { { { { { { } ( T } } { { { { } { { } ( } { } G b } } %.@.} } } } { { { } { } ^ ",
"R } { { { { { { { { { { { { { } { { { { { { { { { { { { { { } T T ..} { { { { { { { } T ( { } L b } } } } } } } } { { { { { } ^ ",
"R } { { { { { { { } } } { { } { { { } { { { } } } } { { { { ..R L ..{ { } { { { { { ..L ( { } L ^ ..} } } } } } } { { } } } ..b ",
"A ..} { { { } } } { { { ..} { } } { } { { } } ^ ^ } } } } ..{ r p } } } { { } } } } R h ^ } } b b ..} } } { { { { } } } } ..M * ",
"X A { } { } ( ( G r r a M A T ^ ^ { { } { G 1 ; * q h h M h 5 O O q b ^ } ..^ b L b ; 5 A { { 5 # A ( { } R x ( } } } } ( b 5 * ",
"h %.@.<.<.<.%.-.<.9.9.3.9.-.w.@.L } } { ( %...{ { ( ( ( ( { { %.%.@.{ } } } } { } } } ....} %.%.} ..} } } @.} } @.-.-.%...{ ..%.",
"x ..{ { { { } } } } } @.......R T { } } } { } } } } } } } ..^ G ( ..} { { { { { { { { { { { { } } { { { } { { { { { } } { { { } ",
"h ..{ { { } } } } } } ..} } ..L R } { { { } { { { { { { { { @.T T } { } { { { { { { } { { } { { { { { { } { } { } } } } } } } } ",
"M ..{ { } } } } } } } } } } ..L ^ } { { { } { { { } } { { { } ..( } { { { { { } { { { { { { { { } { { { } } } } { } } { } { { } ",
"R } { { { } } } } } } } } { } ( ^ } { { { { { { { { { { { { { { { } { { { { { { { { { { { } } } { { { } { { { { { { { } { { } { ",
"T } { { { { } } } } } } } { } ..{ } { { { } { { } { { { { } { { { } { { { { { { { { { { { { { { { { { { { } { { { { { { { { { ..",
"T } { { { { { { { } } } { } } { ( } { { { { { } } } { { } { } { ^ } } { } } } } } } { } } } } { { } { { } } { } } { } } } } } ..",
"L ..{ } { { { } } } } } } } } ( A { } } } { ^ ^ R R } } ( { { A a A R { { { { { { { { ( T G G L a G { } { { { ^ ( { { { ( ^ ^ A ",
"M ..} { { { } { { } } } } } ..T L @.} ..} ..@.-.{ @.......} } { } { { } } } } } } } } } } } } ......%.9.<.@.@.G R ..} } @...} } ",
"x ..{ } { } ..L ^ } } } } { } T T } { { { { { } @.} { { { { { } { { { { { { } { { { { } } { { { { } { { { { ..} ^ } { { { { } ^ ",
"x ..{ } } } { T } } } } { { } R T } } { { { } { ( } { { { { { { { { { { { } { { { } } { { } ( { { { { { { { } ^ R } } { { { } { ",
"a ..} } } } { ( } } } { { { ..L L ..{ { { { } ( G } { { { { { { } } { { { { { { { { { { { { } { { { { { { } } L G ..{ { { { { ..",
"a ..} } { } } ..} } { { } { ..L G } } { { { { ( h } { { { { { { { { { { { { { { } { { { { { { { { { { { { { } R G } { { { { { } ",
"r } } } } ( { { } } { { { } ..T R ..} { } } { R r { } { { { { { { { { { { { { { { } { { { { { { { { { { { { } ( T } { { { { { } ",
"; G } ..^ a { ..{ { { { } ..( a T ..} { { } ..( o h } { { { { { { { { { } { { { { { { { { { { { { { { { } { } ( L } } { } { { } ",
"@ G { ( h 5 M T x G } { R G x ; h { { } } { ( h a { } } { { { { { { { { { } } { } { { { { { { { { { { { { { } ^ L ..{ { } } { } ",
"x -.} @.w.t.3.3.-.%.9.t.t.t.u.@.L } } ..} ....@.%.@.{ { { { { { { { { { { } { { { { { { { { { { { { { { { { } { ^ } { } { { { } ",
"M ..} { { { { } } } } } T ^ } ^ ^ } { { { { } { ^ } } { { { { } { { } } { { { { { { { { { { { { { { } { { { } { ( } { { } { R A ",
"L ..} } { } } } } } } ..A b } ^ R } { { { { } ( T } { { { { } } { } { { { { { } } { { { { { { { { { } { { { } ( ( } { { { } @.} ",
"R ..} } } { } } } } } } 9.%.{ ( R } { { { { } ( ^ } { { { { } { { } } { { { { { { { { { { { } { { { { { { { } { ( } { { { { { } ",
"R ..} } { { { } } } } } } @.} ..} { { { { { } T G ..} } { { } { } { { } } { { { { { { { { { { } { { { { { { } { ( } { { { { { } ",
"^ ..{ { { { { { { { { } } } } { ( } { } { } } { ^ } { { { } ..} } } { { { { { { } { { { { } } { { { } } { { } ( ^ } { { } } { } ",
"5 R { { { { { { } { } } } } } { T } { { { } } { p } } } } { b M ( { } } } { { { { } } { { { { { { { } } } } ..b L ..} { { { } { ",
"M @.} } } } } { { } } { } } } ( ^ } { { { } } { a G T h r 5 ; 1 q r b T { } } } } { { } { { { } { } { ^ ( ( L 1 M ^ ( } } T T x ",
"R ..} } } } { { { { { } } } } R T } { { { ( { ( ..%...} } ..%.@.....} } %.%.<.3.y.-.{ ..} ....{ } ..} } ..@.%.-.@.@.} } ..} } { ",
"R } } } } } } } { { { { } } ..^ T } { { ( ( A a G } { { { { { { { { } } } } { { ..@.{ { } { { } { { { { { { { ( ( { { { { { { ..",
"R } { { { { } } { { } } } } ..^ R } { { ..@.-.-.} } { } { { { { } } } } } } { { { { } { { } { { } } { } } { } { ( } } } { { } } ",
"L } } } { { { { } { } } } } ..R T } { { { { ..%.} } } { { { { { { { { { { { { { { { { { { { { { { } } { { { } { ( } } } } } { } ",
"G ..} { { { { { { } } } } } ..T T } { { { } { { R { { { { { } { { } } } { { { { { { { { { { { { { } } { { { } ( T } } } { { { } ",
"x ..} } } { { { { { { } } } ..T L ..{ { { { { { { } } { { } } } } { { { { { { { { { { { { { { { { { { { { { } ( T } } { { } { } ",
"% ( @.......} } } ......@.....h M @.} } } } } { ( ..} } ........} } } } } } } } ..} } } } } } } ..} } } } } ..( T ..} } } } ....",
"  * h A G ^ { { ^ R M h h p q # 5 G T ( ( ( { L 5 M ^ ( L G b b T ( ( ( ( ( ( L b R ( ( ( ( ( T L ( ( ( ( ( R p 1 { R T ( R G x "
};
