/* XPM */
static char *result[] = {
/* columns rows colors chars-per-pixel */
"64 64 73 1 ",
"  c black",
". c #010101",
"X c #020202",
"o c #0E0E0E",
"O c #111111",
"+ c #1D1D1D",
"@ c #202020",
"# c gray13",
"$ c #232323",
"% c gray17",
"& c gray18",
"* c #343434",
"= c #3C3C3C",
"- c #4C4C4C",
"; c #505050",
": c gray34",
"> c gray36",
", c gray38",
"< c #6F6F6F",
"1 c #777777",
"2 c #7B7B7B",
"3 c gray49",
"4 c #7E7E7E",
"5 c gray50",
"6 c #808080",
"7 c #818181",
"8 c gray51",
"9 c #838383",
"0 c #868686",
"q c #898989",
"w c #8D8D8D",
"e c #909090",
"r c gray57",
"t c #929292",
"y c gray58",
"u c #9A9A9A",
"i c #9B9B9B",
"p c gray62",
"a c gray63",
"s c gray64",
"d c #A5A5A5",
"f c gray65",
"g c gray66",
"h c gray67",
"j c #AEAEAE",
"k c #B1B1B1",
"l c #B7B7B7",
"z c #B9B9B9",
"x c gray",
"c c gray75",
"v c #C1C1C1",
"b c gray76",
"n c #C3C3C3",
"m c #C6C6C6",
"M c gray79",
"N c gray81",
"B c LightGray",
"V c gray84",
"C c gray86",
"Z c #DFDFDF",
"A c #E2E2E2",
"S c gray90",
"D c #E7E7E7",
"F c gray92",
"G c gray93",
"H c gray94",
"J c #F4F4F4",
"K c #F8F8F8",
"L c gray98",
"P c gray99",
"I c #FEFEFE",
"U c white",
"Y c None",
/* pixels */
"YYYYYYY644444446YYYYYYYYYYYYYYYYYYYYYYYYYYYYYYYYYYYYYYYYYYYYYYYY",
"YYYY7q>&&&&&&&&*YYYYYYYYYYYYYYYYYYYYYYYYYYYYYYYYYYYYYYYYYYYYYYYY",
"YYYY:;*XXXXXXXX YYYYYYYYYYYYYYYYYYYYYYYYYYYYYYYYYYYYYYYYYYYYYYYY",
"YYY,@o YYYYYYYYYYYYYYYYYYYYYYYYYYYYYYYYYYYYYYYYYYYYYYYYYYYYYYYYY",
"YYY@,YYYYYYYYYYYYYYYYYYYYYYYYYYYYYYYYYYYYYYYYYYYYYYYYYYYYYYYYYYY",
"YYYo<YYYYYYYYYYYYYYYYYYYYYYYYYYYYYYYYYYYYYYYYYYYYYYYYYYYYYYYYYYY",
"YYYo<YYYYYYYYYYYYYYYYYYYYYYYYYYYYYYYYYYYYYYYYYYYYYYYYYYYYYYYYYYY",
"YYYo<YYYYYYYYYYYYYYYYYYYYYYYYYYYYYYYYYYYYYYYYYYYYYYYYYYYYYYYYYYY",
"YYYo<97YYYYYYYYYYYYYYYYYYYYYYYYYYYYYYYYYYYYYYYYYYYYYYYYYYYYYYYYY",
"YYYY%,q7YYYYYYYYYYYYYYYYYYYYYYYYYYYYYYYYYYYYYYYYYYYYYYYYYYYYYYYY",
"YYYY *,9YYYYYYYYYYYYYYYYYYYYYYYYYYYYYYYYYYYYYYYYYYYYYYYYYYYYYYYY",
"YYYYY %<4YYYYYYYYYYYYYYYYYYYYYYYYYYYYYYYYYYYYYYYYYYYYYYYYYYYYYYY",
"YYYYYYY@<9666YYYYYYYY766666666666668YYYYYYYYYYYYYYYYYYYYYYYYYYYY",
"YYYYYYYY%&-908qq662221iMhvvhMldggggs0+YYYYYYYYYYYYYYYYYYYYYYYYYY",
"YYYYYYYY X$;;;;:14ejjjzBCSSCDANvbbnxi;+YYYYYYYYYYYYYYYYYYYYYYYYY",
"YYYYYYYYYYY   .@6ezIUUBpZVCHNSDMvccccs:OYYYYYYYYYYYYYYYYYYYYYYYY",
"YYYYYYYYYYYYYYY6CHJUUULApNDNHCCHMccccxp,OYYYYYYYYYYYYYYYYYYYYYYY",
"YYYYYYYYYYYYYYaCPUUUUUULBkvGUJSZFNNDMncs:,YYYYYYYYYYYYYYYYYYYYYY",
"YYYYYYYYYYYYYaMUUUUUUUUUUMlNNBchMllMjfgsq43YYYYYYYYYYYYYYYYYYYYY",
"YYYYYYYYYYYYrVUUUUUUUUUUUKMqqqqqqqqqqqqqqqqqYYYYYYYYYYYYYYYYYYYY",
"YYYYYYYYYYYrZLUUUUUUUUUUIlilllllllllllllllzkqYYYYYYYYYYYYYYYYYYY",
"YYYYYYYYYYaVLUUUUUUUUUUKlsxDFFFFFFFFFFFFFFFZjwYYYYYYYYYYYYYYYYYY",
"YYYYYYYYYaMUUUUUUUUUUUHmuxFUUUUUUUUUUUUUUUUPZhwYYYYYYYYYYYYYYYYY",
"YYYYYYYYrVUUUUUUUUUUUKmtcFUUUUUUUUUUUUUUUUUUIZjqYYYYYYYYYYYYYYYY",
"YYYYYYYrZLUUUUUUUUUUIlucGIUUUUUUUUUUUUUUUUUUUPZkqYYYYYYYYYYYYYYY",
"YYYYYYYqNJUUUUUUUUUKlsxFIUUUUUUUUUUUUUUUUUUUUULZjwYYYYYYYYYYYYYY",
"YYYYYYYqlFUUUUUUUUHmuxFUUUUUUUUUUUUUUUUUUUUUUUUPZhwYYYYYYYYYYYYY",
"YYYYYYYqlSPUUUUUUKmtcFUUUUUUUUUUUUUUUUUUUUUUUUUUIZjqYYYYYYYYYYYY",
"YYYYYYYqlmCIUUUUIlucGIUUUUUUUUUUUUUUUUUUUUUUUUUUUPZkqYYYYYYYYYYY",
"YYYYYYYqlcmCPUUKlsxFIUUUUUUUUUUUUUUUUUUUUUUUUUUUUULAjwYYYYYYYYYY",
"YYYYYYYqzbxnAPHmuxFUUUUUUUUUUUUUUUUUUUUUUUUUUUUUUUKDCjrYYYYYYYYY",
"YYYYYYY0kxccvAMtcFUUUUUUUUUUUUUUUUUUUUUUUUUUUUUUUUFNHVd6YYYYYYYY",
"YYYYYYY6qhbccsicGIUUUUUUUUUUUUUUUUUUUUUUUUUUUUUUUUPHNmf6YYYYYYYY",
"YYYYYYY0sidbcjjMLUUUUUUUUUUUUUUUUUUUUUUUUUUUUUUUUUUUFNzu+YYYYYYY",
"YYYYYYY0dpihxncmAKUUUUUUUUUUUUUUUUUUUUUUUUUUUUUUUUJFPCbh=YYYYYYY",
"YYYYYYYY8dfekxccvAPUUUUUUUUUUUUUUUUUUUUUUUUUUUUUUUFNKVncqYYYYYYY",
"YYYYYYYYY0ikehbccnCIUUUUUUUUUUUUUUUUUUUUUUUUUUUUUUPKPVVDe% YYYYY",
"YYYYYYYYYYqifidbcxmCPUUUUUUUUUUUUUUUUUUUUUUUUUUUUUULCASBj=XYYYYY",
"YYYYYYYYYYY0dpihxvxnAKUUUUUUUUUUUUUUUUUUUUUUUUUUUUUKmDFcc=XYYYYY",
"YYYYYYYYYYYY8dfekxccvAPUUUUUUUUUUUUUUUUUUUUUUUUUUUPHNFFvc:XYYYYY",
"YYYYYYYYYYYYY0ukehbccnCIUUUUUUUUUUUUUUUUUUUUUUUUUUFNHUDcck<.YYYY",
"YYYYYYYYYYYYY20ifidbcxmCLUUUUUUUUUUUUUUUUUUUUUUUUUJSCVNccj,.YYYY",
"YYYYYYYYYYYYYY39spihxvMCSKUUUUUUUUUUUUUUUUUUUUUUUUUKmMNccu- YYYY",
"YYYYYYYYYYYYYYY66sfekxVGMALUUUUUUUUUUUUUUUUUUUUUUKLKNSSvci- YYYY",
"YYYYYYYYYYYYYYYY69ikehmmvnCIUUUUUUUUUUUUUUUUUUUUICCPKCncci- YYYY",
"YYYYYYYYYYYYYYYY6usufisccCACLUUUUUUUUUUUUUUUUUULCAAVVMxcci- YYYY",
"YYYYYYYYYYYYYYYY7usufpihxZCmKUJFPUUUUUUUUUUPFJKSCAABvccvvp- YYYY",
"YYYYYYYYYYYYYYYYY3ukeffekxcmHKSNHPUUUKKUUUUKNFFNHCCHMccclu- YYYY",
"YYYYYYYYYYYYYYYYYYYekuukehvvmmCHNFUUUCCIUUUIKPPHNSDMvcvle0; YYYY",
"YYYYYYYYYYYYYYYYYYYYussufidvcCSCSCSUUHZCLSSLCHULMNNccvky99; YYYY",
"YYYYYYYYYYYYYYYYYYYY6udufpihxZCnSZCFPJACSCCSCAFAmxcccng440;.YYYY",
"YYYYYYYYYYYYYYYYYYYY84ykeffekxvcvSAMHBBHNSAMGVxccccccxs661-.YYYY",
"YYYYYYYYYYYYYYYYYYYYY59ekuukehbccmmvmnbNHCnvmncccccccp964=XYYYYY",
"YYYYYYYYYYYYYYYYYYYYYY69yssufidbvccccccbVMxccccccvnxp0469&XYYYYY",
"YYYYYYYYYYYYYYYYYYYYYYY9yssufpihxkkvcvvcccvvccccvkgs9494:#YYYYYY",
"YYYYYYYYYYYYYYYYYYYYYYYqkuukeffekuulczzclxxlcvvcly46664,OYYYYYYY",
"YYYYYYYYYYYYYYYYYYYYYYYYqffekuukeffelpplehhelvvle94669:OYYYYYYYY",
"YYYYYYYYYYYYYYYYYYYYYYYYYrpfussufppfussufppfuyuy94669-#YYYYYYYYY",
"YYYYYYYYYYYYYYYYYYYYYYYYYYrfussugppgussugeed94446904:#YYYYYYYYYY",
"YYYYYYYYYYYYYYYYYYYYYYYYYYYqkyyjqssqjyyjq466666661<,OYYYYYYYYYYY",
"YYYYYYYYYYYYYYYYYYYYYYYYYYYYq99q6006q99q666666664=oOYYYYYYYYYYYY",
"YYYYYYYYYYYYYYYYYYYYYYYYYYYYYY6464464444666669,&&+YYYYYYYYYYYYYY",
"YYYYYYYYYYYYYYYYYYYYYYYYYYYYYYY666666666666669,XXYYYYYYYYYYYYYYY",
"YYYYYYYYYYYYYYYYYYYYYYYYYYYYYYYYY66666666666666YYYYYYYYYYYYYYYYY"
};
