/* XPM */
static char *result[] = {
/* columns rows colors chars-per-pixel */
"64 64 184 2 ",
"   c #161616",
".  c gray14",
"X  c gray16",
"o  c gray17",
"O  c #2C2C2C",
"+  c #2D2D2D",
"@  c gray18",
"#  c #2F2F2F",
"$  c #353535",
"%  c gray22",
"&  c #393939",
"*  c gray23",
"=  c #3C3C3C",
"-  c gray24",
";  c #3E3E3E",
":  c #3F3F3F",
">  c gray25",
",  c #414141",
"<  c gray27",
"1  c #464646",
"2  c gray28",
"3  c #484848",
"4  c #494949",
"5  c gray29",
"6  c #4B4B4B",
"7  c #4C4C4C",
"8  c gray30",
"9  c #4E4E4E",
"0  c gray31",
"q  c #505050",
"w  c #515151",
"e  c gray32",
"r  c #535353",
"t  c gray33",
"y  c #555555",
"u  c gray34",
"i  c #585858",
"p  c gray36",
"a  c #5D5D5D",
"s  c gray37",
"d  c #5F5F5F",
"f  c #606060",
"g  c gray38",
"h  c #626262",
"j  c gray39",
"k  c #646464",
"l  c gray40",
"z  c #676767",
"x  c #686868",
"c  c DimGray",
"v  c #6A6A6A",
"b  c gray42",
"n  c #6C6C6C",
"m  c #6D6D6D",
"M  c gray43",
"N  c #6F6F6F",
"B  c gray44",
"V  c #717171",
"C  c #727272",
"Z  c gray45",
"A  c #747474",
"S  c gray46",
"D  c #767676",
"F  c #777777",
"G  c gray47",
"H  c #797979",
"J  c gray48",
"K  c #7B7B7B",
"L  c #7C7C7C",
"P  c gray49",
"I  c #7E7E7E",
"U  c gray50",
"Y  c #808080",
"T  c #818181",
"R  c gray51",
"E  c #838383",
"W  c #848484",
"Q  c gray52",
"!  c #868686",
"~  c gray53",
"^  c #888888",
"/  c #898989",
"(  c gray54",
")  c #8B8B8B",
"_  c gray55",
"`  c #909090",
"'  c gray57",
"]  c #929292",
"[  c #939393",
"{  c gray58",
"}  c #959595",
"|  c gray59",
" . c #989898",
".. c gray60",
"X. c #9A9A9A",
"o. c #9B9B9B",
"O. c gray61",
"+. c #9D9D9D",
"@. c gray62",
"#. c #9F9F9F",
"$. c gray63",
"%. c #A2A2A2",
"&. c gray64",
"*. c #A4A4A4",
"=. c #A5A5A5",
"-. c gray65",
";. c #A7A7A7",
":. c gray66",
">. c #A9A9A9",
",. c #AAAAAA",
"<. c gray67",
"1. c #ACACAC",
"2. c #AEAEAE",
"3. c #AFAFAF",
"4. c gray69",
"5. c #B1B1B1",
"6. c #B2B2B2",
"7. c gray70",
"8. c #B4B4B4",
"9. c gray71",
"0. c #B6B6B6",
"q. c #B7B7B7",
"w. c gray72",
"e. c #B9B9B9",
"r. c gray73",
"t. c #BBBBBB",
"y. c #BCBCBC",
"u. c gray74",
"i. c gray",
"p. c gray75",
"a. c #C0C0C0",
"s. c #C1C1C1",
"d. c gray76",
"f. c #C3C3C3",
"g. c gray77",
"h. c #C5C5C5",
"j. c #C6C6C6",
"k. c gray78",
"l. c #C8C8C8",
"z. c gray79",
"x. c #CACACA",
"c. c #CBCBCB",
"v. c gray80",
"b. c #CDCDCD",
"n. c #CECECE",
"m. c gray81",
"M. c #D0D0D0",
"N. c gray82",
"B. c #D2D2D2",
"V. c gray83",
"C. c #D5D5D5",
"Z. c gray84",
"A. c #D7D7D7",
"S. c #D8D8D8",
"D. c gray85",
"F. c #DADADA",
"G. c gray86",
"H. c gainsboro",
"J. c #DDDDDD",
"K. c gray87",
"L. c #DFDFDF",
"P. c gray88",
"I. c #E2E2E2",
"U. c gray89",
"Y. c #E4E4E4",
"T. c gray90",
"R. c gray91",
"E. c #E9E9E9",
"W. c #EAEAEA",
"Q. c gray92",
"!. c #ECECEC",
"~. c gray93",
"^. c #EEEEEE",
"/. c gray95",
"(. c #F3F3F3",
"). c #F4F4F4",
"_. c gray96",
"`. c gray97",
"'. c #F8F8F8",
"]. c #F9F9F9",
"[. c #FBFBFB",
"{. c gray99",
"}. c #FEFEFE",
"|. c white",
/* pixels */
"b.G.G.G.G.G.p.Y Y Y Y Y Y Y Y ` B.G.G.G.G.G.G.G.G.G.G.G.G.G.G.G.G.G.G.G.G.G.G.G.G.G.G.G.G.G.G.G.G.G.G.G.G.G.G.G.G.G.G.G.G.M.t y ",
"U._._.^.s.w.o.q q q q q q q q F R._._._._._._._._._._._._._._._._._._._._._._._._._._._._._._._._._._._._._._._._._._._._.R.* - ",
"U._.8.| N z c n n n n n n n n F *.,.,.,.,.,.,.,.,.,.,.,.,.,.,.,.,.,.,.,.,.,.,.,.,.,.,.,.,.,.,.,.,.,.,.,.,.,.,.,.,.,.,.,.,.$.= - ",
"U._.` C - + y L L L L L L L L L L L L L L L L L L L L L L L L L L L L L L L L L L L L L L L L L L L L L L L L L L L L L L D - - ",
"U._.T - C D F L a.x.5.1.W L L L L L L L L L L L h.x.2.1.U L L L L L L L L L L U z.z.1.<.L L L L L L L L L L L Q x.k.1.;.L D - - ",
"U._.I @ G I L K N.J.p.r.! L L L L L L L L L L K S.J.y.r.Y L L L L L L L L L L U H.H.e.w.L L L L L L L L L L L ^ J.F.e.8.L D - - ",
"U._.I @ G I a.x.g.f.t.e.! L L L L L L L L L j.x.f.f.r.e.Y L L L L L L L L I z.x.f.d.e.w.L L L L L L L L L Q x.z.f.d.e.8.L D - - ",
"U._.I @ G I v.J.p.e.e.e.! L L L L L L L L L A.J.y.e.e.e.Y L L L L L L L L U H.H.e.e.e.w.L L L L L L L L L ~ J.F.e.e.e.8.L D - - ",
"U._.I @ G ^ *.d.t.e.L m K L L L L L L L j.x.f.d.r.e.A m L L L L L L L I x.x.d.d.e.w.M M L L L L L L L E v.x.d.d.e.7.m N L D - - ",
"U._.] g g V ) +.9.r.a = D L L L L L L L A.J.y.e.e.r.8 - J L L L L L L I H.J.e.e.e.q.: , L L L L L L L ! K.G.e.e.e.6.= 3 L D - - ",
"U._.+.F T N V ! I N B V K L L L L L L L i.d.r.e.Z b B V L L L L L L L I d.d.e.w.m b V V L L L L L L L E f.s.e.8.b n V C L D - - ",
"U._.+.L 5.R a H U j F P P L L L L L L L 9.0.8.8.u 5 K P P P P P P P P P w.e.r.w.> > L L L L L L L L L R r.e.r.6.= 2 P L L D - - ",
"E._.+.L M l t > H U U Y Y P L L L L L L n F I I I I Y Y Y Y Y Y Y Y Y U M v v v C C L L L L L L L L L K v v v b C Z L L L D - - ",
"Q._.+.L 8 - % $ e q l Y Y U U U U U U U N H ,.Z.6.c.c.6.Z.p.1.1.1.1.1.;.F 5 # : L L L L L L L L L L L H - - - 1 L L L L L D - - ",
"I._.+.L A C C M y 9 i z z z z v P Y o.u.u.u.z.G.F.Y.Y.H.R.P.N.a.a.a.a.y.$.A y d H L L L L L L L L L L L C C C Z L L L L L D - - ",
"L._.+.L L L L L L L z O O O + 2 `  .k.|.|.|.P.;.Q.F.H.(.M.R.R.l.s.a.a.a.a.$.C = N H L L L L L L L L L L L L L L L L L L L D - - ",
"I._.+.L L L L L L L H A A A D ` E.).'.|.|.|.[.Q.;.G.R.M.(.H.H./.l.a.a.a.a.y.=.C = z L L L L L L L L L L L L L L L L L L L D - - ",
"U._.+.L L L L L L L L L L I >.P.[.|.|.|.|.|.|.[.P.z.m.~.{./.Y.H.R.N.N.T.j.a.e.=.C D I L L L L L L L L L L L L L L L L L L D - - ",
"U._.+.L L L L L L L L L P >.D.|.|.|.|.|.|.|.|.|.|.D.z.G.G.G.c.6.Z.p.p.Z.6.1.1.;.! Y U P L L L L L L L L L L L L L L L L L D - - ",
"U._.+.L L L L L L L L Y } P.|.|.|.|.|.|.|.|.|.|.|.'.V.( ( ( ( ( ( ( ( ( ( ( ( ( ( ( ( / I L L L L L L L L L L L L L L L L D - - ",
"/._.+.L L L L L j.M.;.o.E.[.|.|.|.|.|.|.|.|.|.|.|.k.-.r.r.r.r.r.r.r.r.r.r.r.r.r.r.r.r.8./ P L L L L L L L L L ! M.b.4.1.K D - - ",
"_._.+.L L L L K B.a.q.P.[.|.|.|.|.|.|.|.|.|.|.'.k.6.j.W.W.W.W.W.W.W.W.W.W.W.W.W.W.W.W.U.9.' I L L L L L L L L ^ J.F.e.8.L D - - ",
"!._.+.L L L j.n.4.q.D.|.|.|.|.|.|.|.|.|.|.|./.V.-.j.E.|.|.|.|.|.|.|.|.|.|.|.|.|.|.|.|.[.L.q.' P L L L L L Q N.m.a.p.e.8.L D - - ",
"W._.+.L L L n.n.+.P.|.|.|.|.|.|.|.|.|.|.|.'.V.{ f.~.|.|.|.|.|.|.|.|.|.|.|.|.|.|.|.|.|.|.|.L.9./ I L L L L ~ K.F.e.e.e.8.L D - - ",
"Y._.+.L j.N.4.+.E.[.|.|.|.|.|.|.|.|.|.|.|.k.-.f./.{.|.|.|.|.|.|.|.|.|.|.|.|.|.|.|.|.|.|.|.[.U.7./ P L W B.M.a.p.e.7.d k L D - - ",
"U._.+.L N.J.1.` B./.|.|.|.|.|.|.|.|.|.'.k.6.j.~.{.|.|.|.|.|.|.|.|.|.|.|.|.|.|.|.|.|.|.|.|.|.`.U.9.' I ! K.F.e.e.e.6.= 3 L D - - ",
"U._.+.L 0.p.;.( r.W.|.|.|.|.|.|.|.|./.V.-.j.E.|.|.|.|.|.|.|.|.|.|.|.|.|.|.|.|.|.|.|.|.|.|.|.|.[.L.q.' R i.p.e.7.a f S D L D - - ",
"U._.+.L 5.r.;.( r.T.[.|.|.|.|.|.|.'.V.{ f.~.|.|.|.|.|.|.|.|.|.|.|.|.|.|.|.|.|.|.|.|.|.|.|.|.|.|.|.L.9./ 4.w.r.7.= 2 P L L D - - ",
"U._.+.L j p b ( r.j.L.|.|.|.|.|.|.k.-.f./.{.|.|.|.|.|.|.|.|.|.|.|.|.|.|.|.|.|.|.|.|.|.|.|.|.|.|.|.[.U.7.! v p d D D L L L D - - ",
"U._.+.L 8 - a ( r.a.x.L.[.|.|.'.k.6.j.~.{.|.|.|.|.|.|.|.|.|.|.|.|.|.|.|.|.|.|.|.|.|.|.|.|.|.|.|.|.|.`.U.9.^ s < L L L L L D - - ",
"U._.+.L F F J ( r.a.a.j.T.`./.V.-.j.E.|.|.|.|.|.|.|.|.|.|.|.|.|.|.|.|.|.|.|.|.|.|.|.|.|.|.|.|.|.|.|.`.R.H.q.` J L L L L L D - - ",
"U._.+.L L L I / 8.i.a.a.a.I.V.{ f.~.|.|.|.|.|.|.|.|.|.|.|.|.|.|.|.|.|.|.|.|.|.|.|.|.|.|.|.|.|.|.|.|.~.M.(.A.1.Y P L L L L D - - ",
"U._.+.L L L I T / 2.a.a.a.:.-.f./.{.|.|.|.|.|.|.|.|.|.|.|.|.|.|.|.|.|.|.|.|.|.|.|.|.|.|.|.|.|.|.|.|.{.(.M.g.1.Y P L L L L D - - ",
"U._.+.L L L I ! ;.%.<.a.a.8.8.z.'.|.|.|.|.|.|.|.|.|.|.|.|.|.|.|.|.|.|.|.|.|.|.|.|.|.|.|.|.|.|.|.|.|.|.{.~.N.e.&.f m L L L D - - ",
"U._.+.L L L P Q ;.%.%.2.i.a.a.j.T.`.|.|.|.|.|.|.|.|.|.|.|.|.|.|.|.|.|.|.|.|.|.|.|.|.|.|.|.|.|.|.|.|.`.~.{.F.a.q.z M L L L D - - ",
"U._.+.L L L L L U ;.,.' 8.i.a.a.a.T.[.|.|.|.|.|.|.|.|.|.|.|.|.|.|.|.|.|.|.|.|.|.|.|.|.|.|.|.|.|.|.|.~.N.].F.g.d._ H F L L D - - ",
"U._.+.L L L L L h.:.@.8.' 2.a.a.a.j.L.|.|.|.|.|.|.|.|.|.|.|.|.|.|.|.|.|.|.|.|.|.|.|.|.|.|.|.|.|.|.|.{.].}.F.A.~.| l I 4.L D - - ",
"U._.+.L L L L K B.v.-.@.,.%.<.a.a.a.x.L.[.|.|.|.|.|.|.|.|.|.|.|.|.|.|.|.|.|.|.|.|.|.|.|.|.|.|.|.|.|.|.[.L.Y.Y.C.6.m D 8.L D - - ",
"U._.+.L L L v.A.s.u.3.o.:.%.%.2.i.a.a.j.T.`.|.|.|.|.|.|.|.|.|.|.|.|.|.|.|.|.|.|.|.|.|.|.|.|.|.|.|.|.|.'.z.W.W.a.a.K D 8.L D - - ",
"U._.+.L L L N.J.a.e.e.9.R ;.,.' 8.i.a.a.a.T.[.|.|.|.|.|.|.|.|.|.|.|.|.|.|.|.|.|.|.|.|.|.|.|.|.|.|.|.{.(.M.~.W.a.a.! L <.K D - - ",
"W._.+.L v.S.s.y.r.e.z w H Q @.8.' 2.a.a.a.j.L.|.|.|.|.|.|.|.|.|.|.|.|.|.|.|.|.|.|.|.|.|.|.|.|.|.|.|.~.M.(.{.W.a.a.e.[ X S D - - ",
"W._.+.L N.J.a.e.e.r.a = D U ) @.,.%.<.a.a.a.x.L.[.|.|.|.|.|.|.|.|.|.|.|.|.|.|.|.|.|.|.|.|.|.|.|.|.|.`.R.H.F.N.a.a.<.I   A D - - ",
"P._.+.L 7.y.r.e.x 9 A H L I U ! ;.%.%.2.i.a.x.H.R.`.|.|.|.|.|.|.|.|.|.|.|.|.|.|.|.|.|.|.|.|.|.|.|.|.|.'.z.N.N.a.a.O.z o A D - - ",
"L._.+.L 4.r.r.r.d - D L L L P Y Y ;.,.' 8.i.A./.l.T.[.|.|.|.|.|.|.|.|.|.|.|.|.|.|.|.|.|.|.|.|.|.|.[.[.].N.R.T.a.a.O.z O A D - - ",
"U._.+.L u 7 7 7 A J L L L L L P Y ! @.8.' 2.g.l.s.j.L.|.|.|.|.|.|.|.|.|.|.|.|.|.|.|.|.|.|.|.|.|.|.L.L.}.].H.j.a.a.O.z O A D - - ",
"U._.+.L 8 - - - S L L L L L L P Y +.-.@.,.%.<.a.a.G.Y.L.[.|.|.|.|.|.|.|.|.|.|.|.|.|.|.|.|.|.|.[.L.Y.Y.F.F.x.a.a.a.O.z O A D - - ",
"U._.+.L J J J J L L L L L L L L I O.-.@.,.%.%.2.i.G.G.z.'.|.`.~.{.|.|.|.|.|.|.|.|.|.|.{.~.`.`.R.H.Y.Y.A.g.a.a.a.a.O.z O A D - - ",
"U._.+.L L L L L L L L L L L L L L I ..8.' ,.,.' 8.i.a.l./.'.R.M.(.{.|.|.|.[.[.|.|.|.|.].N.~.~.M.(.H.H./.l.a.a.p.r...z O A D - - ",
")._.+.L L L L L L L L L L L L L L L R ' 8.@.@.8.' 2.a.s.l.z.H.(.M.~.|.|.|.L.L.|.|.|.|.}.].{.{.(.M.R.R.l.s.a.a.r.] W z O A D - - ",
"_._.+.L L L L L L L L L L L L L L L P R ..-.-.@.,.%.<.a.a.G.Y.H.R.P.E.|.|./.Y.L.[.E.E.[.L./.|.'.z.N.N.a.a.a.8...W Y z O A D - - ",
"Q._.+.L L L L L L L L L L L L L L L L P Y +.-.@.,.%.%.2.i.G.G.j.T.P.P.~.{./.Y.H.R.P.P.R.H.Y.W.T.j.a.a.a.a.a.1.Y Y Y z O A D - - ",
"W._.+.L L L L L P P P P L L L L L L L L U Y ..8.' ,.,.' 8.i.a.a.a.T.T.l./.A.A.(.M.R.T.l./.A.a.a.a.a.a.a.a.y.;.Y Y K k ; S D - - ",
"U._.+.L L L L L N.G.i.e.! L L L L L L L L U W ' 8.@.@.8.' 2.a.a.a.j.j.s.l.g.g.M.(.H.j.s.l.g.a.a.a.a.a.a.a.$.! Y Y i S ,.K D - - ",
"U._.+.L L L I I N.J.p.e.! L L L L L L L L P U W ..-.-.@.,.%.<.a.a.a.a.a.a.a.a.g.A.x.a.a.a.a.a.a.a.a.a.y.$.) Y Y Y q D 8.L D - - ",
"U._.+.L L L M.H.a.r.e.r.! L L L L L L L L L y.W ..-.-.@.,.%.%.2.i.8.8.a.a.a.a.a.a.a.a.a.a.a.a.a.a.8.1.;.! Y Y P v V { 8.L D - - ",
"U._.+.L I U M.H.p.e.w.w.! L L L L L L L U I a.| 8.@.@.8.' ,.,.' 8.@.@.r.p.y.y.p.r.i.i.r.p.a.a.p.r...Y Y Y Y P S 9 X.w.7.L D - - ",
"U._.+.L M.H.a.r.e.r.d , F L L L L L L L Z.H.t.4.` ,.,.' 8.@.@.8.' ,.,.] r.$.$.r.] 2.2.] r.a.a.r.] W Y Y Y Y v 0 =.2.> 6 L D - - ",
"U._.+.L M.H.a.e.q.w.a : D L L L L L L L Z.H.y.q.;.#.%.,.@.-.-.@.,.%.%.,.@.-.-.@.,.%.%.,.@.O.O...W Y Y Y Y l V X.7.3.: 5 L D - - ",
"U._.+.L 5.r.e.e.f > S L L L L L L L L K 0.r.e.e.w f ' ,.@.-.-.@.,.%.%.,.@.-.-.@.,.] ] ;.! Y Y Y Y Y Y P v V { 6.: 4 L L L D - - ",
"U._.+.L 2.q.q.q.f > D L L L L L L L L L 7.q.q.q.q > L / 7.....8./ ;.;./ 8.....8./ Y Y Y Y Y Y Y Y K G C 9 ..q.4.: 4 L L L D - - ",
"U._.+.L 9 ; ; ; S L L L L L L L L L L L 2 ; ; ; H L L I / W W / T ! ! T / W W / T Y Y Y Y Y Y Y Y i @ * & = ; 2 L L L L L D - - ",
"U._.o.K 8 - - - Z J J J J J J J J J J K < - - - F J J J L L I Y Y Y Y Y Y Y Y Y Y Y Y Y Y Y V q q p h j = - - 1 K J J J K S - - ",
"U._.I - - - - - - - - - - - - - - - - - - - - - - - - - - - r m m H Y Y Y Y Y Y Y Y Y Y Y Y c . . $ - - - - - - - - - - - - - - ",
"U._.I - - - - - - - - - - - - - - - - - - - - - - - - - - - - - - m Y Y Y Y Y Y Y Y Y Y Y Y m - - - - - - - - - - - - - - - - - "
};
