/* XPM */
static char *result[] = {
/* columns rows colors chars-per-pixel */
"64 64 34 1 ",
"  c black",
". c gray12",
"X c gray78",
"o c #626262",
"O c #848484",
"+ c #939392",
"@ c #2F2F2F",
"# c #00003C",
"$ c #0000C1",
"% c #101010",
"& c gray80",
"* c #323232",
"= c blue",
"- c #414141",
"; c #9A9A9A",
": c #2C2C2C",
"> c gray67",
", c gray56",
"< c #3E3E3E",
"1 c #434343",
"2 c #3030FF",
"3 c #2A2A2A",
"4 c #686868",
"5 c #727271",
"6 c #4A4A49",
"7 c #00002B",
"8 c #0F0FFF",
"9 c #0B0B39",
"0 c #9A9AFF",
"q c #9797BF",
"w c gray76",
"e c #2C2CBF",
"r c #000090",
"t c #3030BF",
/* pixels */
"wwwXXXXXXXXXXXXXXXXXXXXXXXXXXXXXXXXXXXXXXXXXXXXXXXXXXXXXXXXXXXww",
"w>;+,,++++++++++++++++++,,++,,++,,++,,+++++++++++++,+++++,+++;>>",
"w;6:3::@@*@@@@@@@@@@@@@@::@@::@@::@@::@@@@@@@@@@*@:::@@@::::@65+",
"X+: .3.%  7############9@@99@@99@@99@@9########7  .3.%  .3.% .oO",
"X,3.4O51%7r$$$$$$$$$$$$tqqeeqqeeqqeeqqt$$$$$$$$r7.5O51%.5O51%.oO",
"X,:3O>;o.#$============2002200220022002========$#:,>;o.3,>;o..oO",
"X+:.5;,o.#$============8228822882288228========$#.5;,o..5;,o..oO",
"X+@%1oo6%7r$$$$$$$$$$$$$$$$$$$$$$$$$$$$$$$$$$$$r7%6oo6%%6oo6%.oO",
"X+@ %..%  7####################################7  %..%  %..% .oO",
"X+*                                                          .oO",
"X+@                                                          .oO",
"X+@                                                          .oO",
"X+@                                                          .oO",
"X+@                                                          .oO",
"X+@                                                          .oO",
"X+@        %*1--1*%        %@@%                              .oO",
"X+@        3+&&&&+3        *;;*                              .oO",
"X+@      %3o>&XX&>o@%      1&&-                              .oO",
"X+@      *+>o<<<<o>;*      1&&<                              .oO",
"X+@      1&&<    @;;*  %*@%@+>o:%                            .oO",
"X+@      -&X<    %**%  *;;* 3o>+*                            .oO",
"X+@      -XX-          *;;*  <&&-                            .oO",
"X+@      -XX-          %**%  -&&<                            .oO",
"X+@      -&X<    %**%        *+>o:%                          .oO",
"X+@      1&&<    @;;*        %:o>+*                          .oO",
"X+@      *+>o<<<<o>;*  %**%    <&&-%@1----------1*%          .oO",
"X+@      %3o>&XX&>o@%  *;;*    -&&<3+&&XXXXXXXX&&;@          .oO",
"X+@        3+&&&&+3    *;;*    *;+::+&&XXXXXXXX&&;@          .oO",
"X+@        %*1--1*%    %**%    %@@%%*1----------1*%          .oO",
"X+@                                                          .oO",
"X+@                                                          .oO",
"X+@                                                          .oO",
"X+@                                                          .oO",
"X+@                                                          .oO",
"X+@                                                          .oO",
"X+@                                                          .oO",
"X+@                                                          .oO",
"X+@                                                          .oO",
"X+@                                                          .oO",
"X+@                                                          .oO",
"X+@                                                          .oO",
"X+@                                                          .oO",
"X+@                                                          .oO",
"X+@                                                          .oO",
"X+@                                                          .oO",
"X+@                                                          .oO",
"X+@                                                          .oO",
"X+@                                                          .oO",
"X+@                                                          .oO",
"X+@                                                          .oO",
"X+@                                                          .oO",
"X+@                                                          .oO",
"X+@                                                          .oO",
"X+@                                                          .oO",
"X+@                                                          .oO",
"X+@                                                          .oO",
"X+@                                                          .oO",
"X+@                                                          .oO",
"X+@                                                          .oO",
"X+@                                                          .oO",
"X+@                                                          .oO",
"X;6..........................................................*4O",
"w>5oooooooooooooooooooooooooooooooooooooooooooooooooooooooooo45O",
"w>+OOOOOOOOOOOOOOOOOOOOOOOOOOOOOOOOOOOOOOOOOOOOOOOOOOOOOOOOOOOOO"
};
