/* XPM */
static char *_a940fbd66e340eaa549c3e9655485a1AjJati0fxpZevASg[] = {
/* columns rows colors chars-per-pixel */
"64 64 222 2 ",
"   c #47704C",
".  c black",
"X  c #000000",
"o  c gray51",
"O  c #848484",
"+  c gray8",
"@  c #393939",
"#  c #393939",
"$  c gray36",
"%  c #777777",
"&  c gray36",
"*  c gray47",
"=  c white",
"-  c #F1F1F1",
";  c #A4A4A4",
":  c gray8",
">  c gray22",
",  c #6A6A6A",
"<  c #D2D2D2",
"1  c #003165",
"2  c #003064",
"3  c #2F567D",
"4  c #003366",
"5  c #969695",
"6  c #B6B5B4",
"7  c #020202",
"8  c gray82",
"9  c #848484",
"0  c #939393",
"q  c #939FAC",
"w  c #959494",
"e  c #2D2D2D",
"r  c #C1C1C0",
"t  c #929291",
"y  c #B1B1B1",
"u  c gray69",
"i  c #AFAFAF",
"p  c #909090",
"a  c #A2A2A3",
"s  c #3C3C3C",
"d  c #2B537B",
"f  c #E5E6E6",
"g  c #C3C3C3",
"h  c gray62",
"j  c #B7B6B6",
"k  c #C6C5C5",
"l  c gray75",
"z  c #E3E3E4",
"x  c #E0E1E1",
"c  c gray70",
"v  c #95A2AF",
"b  c #929FAC",
"n  c #B8B7B7",
"m  c #F9E5D7",
"M  c #A7A7A7",
"N  c #B9B9B8",
"B  c #FDF8F4",
"V  c #CFCECD",
"C  c #313130",
"Z  c #E7CDDA",
"A  c #AAAAAA",
"S  c #D68A5F",
"D  c #B16387",
"F  c #F8EEDA",
"G  c #757475",
"H  c #EDE3DA",
"J  c #919EAB",
"K  c #A1A1A0",
"L  c #F3F3F5",
"P  c #F8F6F5",
"I  c #002E63",
"U  c #D5D5D4",
"Y  c #3A3A3A",
"T  c #DDDDDF",
"R  c #B38A63",
"E  c #F3DACD",
"W  c #989898",
"Q  c #202020",
"!  c #CACACA",
"~  c #151617",
"^  c #F0DBDB",
"/  c #B16266",
"(  c #F6E4CC",
")  c #494644",
"_  c #EFDCE5",
"`  c #FFFDF4",
"'  c #6C7986",
"]  c #C6CDDA",
"[  c #945E2E",
"{  c #E6D2DE",
"}  c #EBD0D0",
"|  c #DB873D",
" . c #DCD9D1",
".. c #952B35",
"X. c #3D3E4F",
"o. c #C66022",
"O. c #FCF6F8",
"+. c #8C8E8F",
"@. c gray95",
"#. c #072E55",
"$. c #090909",
"%. c #9A9A9A",
"&. c #E8DAC9",
"*. c gray37",
"=. c #9E6523",
"-. c #902A55",
";. c #111111",
":. c #FFDCC2",
">. c #90408A",
",. c #1E466E",
"<. c #1F2C39",
"1. c #A9A9A9",
"2. c #575E88",
"3. c gray53",
"4. c #D1D9D5",
"5. c #6C6D6D",
"6. c #BB9161",
"7. c #EDDFD1",
"8. c #FC8B39",
"9. c #F4DECD",
"0. c #244B71",
"q. c #E2C381",
"w. c #646566",
"e. c #D0DBE5",
"r. c #E6CDCE",
"t. c #5D6C8A",
"y. c #9FA8B1",
"u. c #416089",
"i. c #F5DBC1",
"p. c #F2D6CF",
"a. c #D48063",
"s. c #865A2A",
"d. c #C4552B",
"f. c #BABBBC",
"g. c #A1372B",
"h. c #E8DCCF",
"j. c #E8DDD7",
"k. c #D15F02",
"l. c #D96B0D",
"z. c #D06119",
"x. c #F16200",
"c. c #C68BA9",
"v. c #868567",
"b. c #CFA761",
"n. c #E5E5DC",
"m. c #CBFCCC",
"M. c #F5E9C9",
"N. c #D8B248",
"B. c #A8598A",
"V. c #DFC6DC",
"C. c #B5853A",
"Z. c #C7A88A",
"A. c #E4A88B",
"S. c #953A57",
"D. c #95544F",
"F. c #C58A8A",
"G. c #CFD1DC",
"H. c #202861",
"J. c #6B88A3",
"K. c #7C7C72",
"L. c #584F35",
"P. c #811B60",
"I. c #565655",
"U. c #F5F2C9",
"Y. c #FFF9D2",
"T. c #6A0A60",
"R. c #2C5F46",
"E. c #86939F",
"W. c #A08265",
"Q. c #BA6B61",
"!. c #B18B81",
"~. c #08265E",
"^. c #BE442A",
"/. c #E2A86D",
"(. c #B07F8A",
"). c #32325A",
"_. c #282A62",
"`. c #6C5239",
"'. c #394061",
"]. c #33335B",
"[. c #D86A63",
"{. c #AF5F23",
"}. c #FFA86D",
"|. c #4C5055",
" X c #639671",
".X c #847C74",
"XX c #F07F00",
"oX c #E2A96D",
"OX c #F7FDF8",
"+X c #FBA83A",
"@X c #C2A487",
"#X c #6B2262",
"$X c #E1D855",
"%X c #45E149",
"&X c #D5CA4E",
"*X c #FDF4C3",
"=X c #FFE46A",
"-X c #F6D83E",
";X c #F3BC92",
":X c #E2898C",
">X c #A76CA9",
",X c #CDA417",
"<X c #8C8BA8",
"1X c #1D275E",
"2X c #F37F32",
"3X c #956149",
"4X c #E5C98B",
"5X c #C5AAAA",
"6X c #C3A98C",
"7X c #E19238",
"8X c #D8BFD9",
"9X c #68005F",
"0X c #E8DB9F",
"qX c #792F5E",
"wX c #620260",
"eX c #375674",
"rX c #D9BFDA",
"tX c #631961",
"yX c #FFF7CF",
"uX c #11AC1E",
"iX c #6CFF6B",
"pX c #838383",
/* pixels */
"                                                                                                                                ",
"                                                                                                                                ",
"                                                                                                                                ",
"o o o o o o o o o o o o o o o o o o o o o o o o o o o o o o o o o o o o o o o o o o o o o o o o o o o o o o o o o o o % $ @ . . ",
"O O O O O O O O O O O O O O O O O O O O O O O O O O O O O O O O O O O O O O O O O O O O O O O O O O O O O O O O O O O * & # + X ",
"3.3.p w 5 5 5 5 5 5 5 5 5 5 5 5 5 5 5 5 5 5 5 5 5 5 5 5 5 5 5 5 5 5 5 5 5 5 5 5 5 5 5 5 5 5 5 5 5 5 5 5 5 5 5 5 5 W W 9 *.> : 7 ",
"9 p M c 6 6 6 6 6 6 6 6 6 6 6 6 6 6 6 6 6 6 6 6 6 6 6 6 6 6 6 6 6 6 6 6 6 6 6 6 6 6 6 6 6 6 6 6 6 6 6 6 6 6 6 6 6 j n h , > : 7 ",
"9 w c f.y.b b q q q q q q q q q q q q q q q q q q q q q q q q q q q q q q q q q q b J J J J b b J J J J b b J J J b v +.w.> : 7 ",
"9 5 6 y.t.d d 3 3 3 3 3 3 3 3 3 3 3 3 3 3 3 3 3 3 3 3 3 3 3 3 3 3 3 3 3 3 3 3 3 3 3 d d d d 3 3 d d d d 3 3 d d d d 3 eX|.Y : 7 ",
"9 5 6 b d I I 2 2 2 2 2 2 2 2 2 2 2 2 2 2 2 2 2 2 2 2 2 2 2 2 2 2 2 2 2 2 2 2 2 2 4 0.d d ,.#.#.,.d d ,.#.#.,.d d ,.#.#.X.s ~ 7 ",
"9 5 6 b d I I 1 1 1 1 1 1 1 1 1 1 1 1 1 1 1 1 1 1 1 1 1 1 1 1 1 1 1 1 1 1 1 1 2 I 0.J.v v ' <.<.' v v ' <.<.' v v ' <.~ s s ~ 7 ",
"9 5 6 q 3 2 1 4 4 4 4 4 4 4 4 4 4 4 4 4 4 4 4 4 4 4 4 4 4 4 4 4 4 4 4 4 4 4 4 1 2 3 v V V w e e w V V w e e w V V 5 C ;.Y s ~ 7 ",
"9 5 6 q 3 2 1 4 4 4 4 4 4 4 4 4 4 4 4 4 4 4 4 4 4 4 4 4 4 4 4 4 4 4 4 4 4 4 4 1 2 3 v V V w e e w V V w e e w V V 5 C ;.Y s ~ 7 ",
"9 5 6 b d I I 1 1 1 1 1 1 1 1 1 1 1 1 1 1 1 1 1 1 1 1 1 1 1 1 1 1 1 1 1 1 1 1 2 2 ,.' w w , Q Q , w w , Q Q , w w 5.Q ;.Y s ~ 7 ",
"9 5 6 b d I I 2 2 2 2 2 2 2 2 2 2 2 2 2 2 2 2 2 1 1 2 2 2 2 2 2 2 2 2 2 2 2 2 2 2 #.<.e e Q $.$.Q C C Q $.$.Q C C Q $.;.Y s ~ 7 ",
"9 5 6 y.t.d d 3 3 3 3 3 3 3 3 3 3 3 3 3 3 3 3 d 0.0.d 3 3 3 3 3 3 3 3 3 3 3 3 3 3 0.> C C C C C C C C C C C C C C C C > ) Y ~ 7 ",
"9 w y N y.J b q J J q q J J J J q q J J q q q E.' ' E.q b q v v v v v v v v v v v q W w w w 5 5 w w w w 5 5 w w w w w pX*.> : 7 ",
"9 w y g g r N N r r n n l g g l n n r r N N r 6 5 5 6 k k N K w t t t t t t t t t t 0 0 0 0 0 0 0 0 0 0 0 0 0 0 t K f.A 5.> : 7 ",
"9 w y g g j h K N N h h j g g j h h N N K h N 6 w w c k k K I.e e e e e e e e e e e e e e e e e e e e e e e e e e I.a A 5.> : 7 ",
"9 w y g g 6 h %.A i M A N r r N A M i A %.h j y 0 0 y g k t e $.e s s s s s s s s s s s s s s s s s s s s s s Y > *.a M 5.> : 7 ",
"9 w y g r l n 1.W M 8 T ! l l ! T 8 M W 1.n l y 0 0 y g k p e e p g g r r r r r r r r r r r r r r r r r r r r r r r g ; , > : 7 ",
"9 w y g r l n 1.W M 8 T ! l l ! T 8 M W 1.n l y 0 0 y g k +.e s g = = = = = = = = = = = = = = = = = = = = = = = = P U ; , > : 7 ",
"9 w y g g 6 h %.A i M A N r r N A M i A %.h j y 0 0 y g k +.e Y g = = = = = = = = = = = = = = = = = = = = = = = = P < ; , > : 7 ",
"9 w y g g 6 h h n n h %.6 g g 6 %.h n n h h n c 0 0 y g k %.|.*.r P L - - - - - - - - - - - - - - - - - - - - - @.f V ; , > : 7 ",
"9 w y g g l j j l l 6 6 l g g l 6 6 l l j n l c 0 0 y g g j h a r < 8 8 8 8 8 8 8 8 8 8 8 8 8 8 8 8 8 8 8 8 8 8 8 V k ; , > : 7 ",
"9 w y l 6 u y y y y y y y u u y y y y y y y y ; +.+.; y y y c c u i i i i i i i i i i i i i i i i i i i i i i i i 6 l M , > : 7 ",
"9 w y j h p t t t t t t t t t t t t t t t t t +.3.3.+.t t t 0 0 t p p p p p p p p p p p p p p p p p p p p p p p p h n M , > : 7 ",
"9 w y f.A K K a ; ; ; ; a a a a a a ; ; ; ; ; ; ; a a a ; ; ; ; ; ; a a a a a a a a a a a a a a ; ; ; ; ; ; a K K A f.M , > : 7 ",
"9 0 y ! T z x z z f f z z z x x x z f f f f f f z x x x z f f f f z x x x x z z x x z z x x x z f f f f f f z x z T ! ; , > : 7 ",
"9 0 u 8 L = = B n. . .x m.m.OX= = O._ Z V.V.Z _ O.= = B m :.:.:.i.m B = = ` Y.Y.` ` F F ` = = O._ Z } } } ^ O.= = L < ; , > : 7 ",
"9 0 u 8 @.= = n.; v..X X%XiXm.= = _ c.B.>.>.B.c._ = = m }.8.8.8.| oXm = = yX=X=XY.F q.q.F = = _ c.D / / / F.^ = = L < ; , > : 7 ",
"9 0 u 8 - = =  .v.L.) R.uX%Xm.= = Z B.P.T.T.P.D Z = = :.8.x.x.x.k.| i.= = *X-X-X*XF q.q.F = = Z D -.....g.Q.} = = - < ; , > : 7 ",
"9 0 u 8 - = = U K.) X.'.R. X4.= = V.>.T.tX#X-.D Z = = ( +XXXl.k.z.S E = = U.$X$XU.= F F B = = Z D -...g.^.a.p.= = - < ; , > : 7 ",
"9 0 u 8 - = = U G X.]._.H.2.] = = 8X>.wX#XqX-.D Z = = ( +XXXl.o.o.S E = = U.&X&X0X( h.H P = = Z D -...g.d.S E = = - < ; , > : 7 ",
"9 0 u 8 - = = < G X.).H.~.u.] = = 8X>.9XP.-.../ r.= = i.7Xl.z.o.{.R &.= = M.N.,XN.b.6.@XH = = r./ ....g.d.S E = = - < ; , > : 7 ",
"9 0 u 8 - = = T %.G t.2.u.J.e.= = { >X>.B.D / F.^ = = ( /.| S S R 6XH = = U.q.N.N.b.6.@XH = = ^ F./ / Q.a.A.m = = - < ; , > : 7 ",
"9 0 u 8 - = = P x U G.G.] e.L = = L { V.Z { } ^ P = = B m 9.9.7.j.H P = = B F M.M.( &.H P = = L ^ r.r.} p.m B = = - < ; , > : 7 ",
"9 0 u 8 - = = B m 9.7.7.7.m B = = ` F M.7.j.j.f O.= = O.^ p.E 9.9.m B = = P n. .4.z OX= = = = = = = = = = = = = = - < ; , > : 7 ",
"9 0 u 8 - = = m A.S 6.R R Z.H = = F 4Xb.6.R !.5Xf = = ^ :X[.a.S | oX( = = n.; v.K.K f = = = = = = = = = = = = = = - < ; , > : 7 ",
"9 0 u 8 - = = E S {.=.[ s.W. .= = ( b.C.=.[ D.(.{ = = } [.^.d.z.k.| i.= =  .v.L.) , i T P = = = = = = = = = = = = - < ; , > : 7 ",
"9 0 u 8 - = = &.C.=.=.s.`..XU = = h.6.=.=.[ S.D { = = p.a.d.o.z.x.8.:.= = U K.) X.'.2.<XT = = = = = = = = = = = = - < ; , > : 7 ",
"9 0 u 8 - = = &.C.[ s.`.) G < = = &.R [ [ D.S.D Z = = E S o.o.l.2X}.m = = U G X.]._.1X2.] = = = = = = = = = = = = - < ; , > : 7 ",
"9 0 u 8 - = = &.R s.L.) ) G < = = &.R [ 3XD.S.D Z = = E S o.k.| ;Xm B = = < G X.).H.~.u.] = = = = = = = = = = = = - < ; , > : 7 ",
"9 0 u 8 - = = H Z.W.G 5.G W T = = H Z.R !.(.D c._ = = m A.S | /.m = = = = T W G t.2.u.J.e.= = = = = = = = = = = = - < ; , > : 7 ",
"9 0 u 8 - = = P H  .< 8 < T P = = P H h.j.{ { _ L = = B m E i.( B = = = = P T < G.] ] e.L = = = = = = = = = = = = - < ; , > : 7 ",
"9 0 u 8 - = = = = = = = = = = = = = = = = = = = = = = = = = = = = = = = = = = = = = = = = = = = = = = = = = = = = - < ; , > : 7 ",
"9 0 u 8 - = = = = = = = = = = = = = = = = = = = = = = = = = = = = = = = = = = = = = = = = = = = = = = = = = = = = - < ; , > : 7 ",
"9 0 u 8 - = = = = = = = = = = = = = = = = = = = = = = = = = = = = = = = = = = = = = = = = = = = = = = = = = = = = - < ; , > : 7 ",
"9 0 u 8 - = = = = = = = = = = = = = = = = = = = = = = = = = = = = = = = = = = = = = = = = = = = = = = = = = = = = - < ; , > : 7 ",
"9 0 u 8 - = = = = = = = = = = = = = = = = = = = = = = = = = = = = = = = = = = = = = = = = = = = = = = = = = = = = - < ; , > : 7 ",
"9 0 u 8 - = = = = = = = = = = = = = = = = = = = = = = = = = = = = = = = = = = = = = = = = = = = = = = = = = = = = - < ; , > : 7 ",
"9 0 u 8 - = = = = = = = = = = = = = = = = = = = = = = = = = = = = = = = = = = = = = = = = = = = = = = = = = = = = @.< ; , > : 7 ",
"9 0 u 8 @.= = = = = = = = = = = = = = = = = = = = = = = = = = = = = = = = = = = = = = = = = = = = = = = = = = = = L < ; , > : 7 ",
"9 w y V f L @.- - - - - - - - - - - - - - - - - - - - - - - - - - - - - - - - - - - - - - - - - - - - - - - - @.L f 8 ; , > : 7 ",
"3.w c ! V < < < < < < < < < < < < < < < < < < < < < < < < < < < < < < < < < < < < < < < < < < < < < < < < < < < < 8 ! M , > : 7 ",
"G 9 %.M ; ; ; ; ; ; ; ; ; ; ; ; ; ; ; ; ; ; ; ; ; ; ; ; ; ; ; ; ; ; ; ; ; ; ; ; ; ; ; ; ; ; ; ; ; ; ; ; ; ; ; ; ; ; M t w.> : 7 ",
"*.*.w., , , , , , , , , , , , , , , , , , , , , , , , , , , , , , , , , , , , , , , , , , , , , , , , , , , , , , , , w.I.Y : 7 ",
"> > > > > > > > > > > > > > > > > > > > > > > > > > > > > > > > > > > > > > > > > > > > > > > > > > > > > > > > > > > > Y e ;.7 ",
": : : : : : : : : : : : : : : : : : : : : : : : : : : : : : : : : : : : : : : : : : : : : : : : : : : : : : : : : : : : : ;.$.7 ",
"X X X X X X X X X X X X X X X X X X X X X X X X X X X X X X X X X X X X X X X X X X X X X X X X X X X X X X X X X X X X X X X X ",
". . . . . . . . . . . . . . . . . . . . . . . . . . . . . . . . . . . . . . . . . . . . . . . . . . . . . . . . . . . . . . . . ",
"                                                                                                                                ",
"                                                                                                                                ",
"                                                                                                                                "
};
